<?xml version="1.0" encoding="UTF-8" standalone="no"?>
<svg
   xmlns:dc="http://purl.org/dc/elements/1.1/"
   xmlns:cc="http://creativecommons.org/ns#"
   xmlns:rdf="http://www.w3.org/1999/02/22-rdf-syntax-ns#"
   xmlns:svg="http://www.w3.org/2000/svg"
   xmlns="http://www.w3.org/2000/svg"
   xmlns:sodipodi="http://sodipodi.sourceforge.net/DTD/sodipodi-0.dtd"
   xmlns:inkscape="http://www.inkscape.org/namespaces/inkscape"
   version="1.1"
   width="420px"
   height="420px"
   viewBox="-10 -10 420 420"
   id="svg7"
   sodipodi:docname="ISO_7010_M019.svg"
   inkscape:version="0.92.4 (5da689c313, 2019-01-14)">
  <metadata
     id="metadata11">
    <rdf:RDF>
      <cc:Work
         rdf:about="">
        <dc:format>image/svg+xml</dc:format>
        <dc:type
           rdf:resource="http://purl.org/dc/dcmitype/StillImage" />
      </cc:Work>
    </rdf:RDF>
  </metadata>
  <sodipodi:namedview
     pagecolor="#ffffff"
     bordercolor="#666666"
     borderopacity="1"
     objecttolerance="10"
     gridtolerance="10"
     guidetolerance="10"
     inkscape:pageopacity="0"
     inkscape:pageshadow="2"
     inkscape:window-width="1537"
     inkscape:window-height="930"
     id="namedview9"
     showgrid="false"
     inkscape:zoom="1.5893067"
     inkscape:cx="108.51247"
     inkscape:cy="209.51075"
     inkscape:window-x="0"
     inkscape:window-y="27"
     inkscape:window-maximized="0"
     inkscape:current-layer="svg7" />
  <defs
     id="def1" />
  <path
     style="fill:#000000;fill-opacity:1;stroke:none;stroke-width:1.51463103"
     d="m 307.37714,406.10893 c 8.17901,-2.27196 18.13014,-12.61688 20.3112,-21.1291 0.95423,-3.726 2.0599,-20.40209 2.46886,-37.06303 1.09053,-45.9539 5.7556,-63.73567 28.41448,-108.29611 15.90362,-31.29228 20.705,-47.31707 21.99243,-73.45961 C 384.75964,80.372384 318.34307,6.3387354 232.31204,0.91181206 224.57226,0.42258649 216.12063,-0.92089074 213.53061,-2.0765546 202.68585,-6.908227 193.49204,-7.444407 129.42315,-6.9763861 67.383865,-6.5219963 65.036187,-6.3993115 58.174909,-3.2337321 49.374903,0.83456591 37.894,11.258257 34.168008,18.570895 29.931585,26.878646 27.96105,41.487262 28.462393,60.89423 l 0.449845,17.418256 39.53187,0.757316 c 30.398642,0.57556 40.107432,1.241997 42.031012,2.832359 2.21136,1.84785 2.49914,6.81584 2.49914,43.045809 0,36.00278 -0.30293,41.30399 -2.49914,43.74254 -2.30224,2.54459 -5.63443,2.77178 -40.713284,2.77178 -31.049936,0 -38.532212,0.3938 -39.981715,2.13564 -1.319243,1.59035 -1.657006,22.84063 -1.320758,82.92604 l 0.452875,80.79042 3.953187,8.33047 c 5.119452,10.78416 13.419631,19.11463 23.961463,24.06748 8.194153,3.84717 9.405857,3.96833 42.985222,4.43787 24.93084,0.34837 34.68505,0.98452 35.03342,2.27195 0.27264,0.98451 1.28744,4.69536 2.2568,8.25474 2.19622,8.08813 9.60276,16.64579 17.50913,20.25061 5.58899,2.52944 11.64751,2.75664 76.50401,2.77178 45.42379,0.0151 72.50539,-0.54527 76.26167,-1.59036 z M 160.39736,390.41735 c -5.02858,-2.2265 -10.3298,-10.28435 -9.01207,-13.70741 0.57557,-1.49949 7.14907,-2.10534 26.99074,-2.51429 25.08228,-0.49983 26.61207,-0.71188 34.80621,-4.7408 9.42101,-4.61962 17.4334,-12.58658 22.79519,-22.59829 l 3.46851,-6.51292 0.75732,-87.84859 0.75731,-87.8486 h 62.09988 62.09986 l -0.43924,6.81584 c -1.27229,19.84167 -6.36144,34.97283 -21.61378,64.37182 -21.29571,41.00106 -27.0816,64.00831 -28.4902,113.18837 l -0.95423,32.91294 -4.95284,4.95284 -4.95285,4.95285 -69.26407,0.34836 c -56.78352,0.28778 -70.12741,-0.0303 -74.09574,-1.77212 z M 39.74185,311.06583 c -7.467131,-8.25474 4.649917,-20.37179 12.510851,-12.51085 3.771432,3.77143 4.013773,7.34596 0.802756,11.92015 -2.908093,4.15008 -9.799663,4.46816 -13.313607,0.5907 z m 25.642702,-0.12117 c -3.741138,-4.13494 -2.574872,-10.87505 2.347679,-13.63167 3.574529,-1.99932 4.407576,-1.95388 7.951813,0.3635 2.726335,1.78726 3.968332,3.93804 3.968332,6.87643 0,8.11843 -9.042347,12.16248 -14.267824,6.39174 z m 24.203804,-0.46953 c -1.302582,-1.84786 -2.362825,-4.27127 -2.362825,-5.37694 0,-2.75664 6.921869,-9.43615 9.769369,-9.43615 3.52909,0 8.4062,5.58898 8.4062,9.6179 0,7.89123 -11.31429,11.61722 -15.812744,5.19519 z M 241.21806,125.00856 c -0.56041,-0.54527 -1.0148,-21.65922 -1.0148,-46.892976 0,-37.74309 -0.4241,-47.138346 -2.37798,-52.906061 -1.31772,-3.856251 -1.9993,-7.397458 -1.52977,-7.870023 1.52977,-1.529777 22.52257,2.906578 34.77593,7.34899 20.9322,7.595874 34.83651,16.550373 52.19418,33.61572 17.64546,17.357672 33.98833,45.33291 36.22998,62.00899 l 0.75731,5.71016 h -59.01002 c -32.45854,0 -59.47956,-0.45439 -60.02483,-1.0148 z m -134.65069,1.95388 c 0.28778,-26.5212 -0.10603,-38.289878 -1.31773,-39.75907 -1.37831,-1.650948 -9.04235,-2.075045 -37.714312,-2.075045 -38.439819,0 -40.876861,0.469536 -38.656412,7.467132 0.931498,2.938384 2.350708,3.089847 31.552793,3.483651 l 30.5804,0.40895 V 122.9941 149.50014 L 60.79522,149.9091 c -21.871271,0.30291 -30.557679,0.92392 -31.411931,2.27194 -1.463134,2.30224 -1.597936,10.82961 -0.193874,12.23822 0.569502,0.57556 18.12559,0.8482 38.997204,0.63614 l 37.971801,-0.40895 z"
     id="path5"
     inkscape:connector-curvature="0"
     sodipodi:nodetypes="ccccccccccccccscsccccccccccccccccccccccccccccccscccccsccsssccsccccccscccsccccccccccc" />
</svg>
