<?xml version="1.0" encoding="UTF-8" standalone="no"?>
<svg
   xmlns:dc="http://purl.org/dc/elements/1.1/"
   xmlns:cc="http://creativecommons.org/ns#"
   xmlns:rdf="http://www.w3.org/1999/02/22-rdf-syntax-ns#"
   xmlns:svg="http://www.w3.org/2000/svg"
   xmlns="http://www.w3.org/2000/svg"
   xmlns:sodipodi="http://sodipodi.sourceforge.net/DTD/sodipodi-0.dtd"
   xmlns:inkscape="http://www.inkscape.org/namespaces/inkscape"
   width="259px"
   height="259px"
   viewBox="0 0 259 259"
   version="1.1"
   id="svg7"
   sodipodi:docname="facebook_icon.svg"
   inkscape:version="0.92.4 (5da689c313, 2019-01-14)">
  <metadata
     id="metadata13">
    <rdf:RDF>
      <cc:Work
         rdf:about="">
        <dc:format>image/svg+xml</dc:format>
        <dc:type
           rdf:resource="http://purl.org/dc/dcmitype/StillImage" />
      </cc:Work>
    </rdf:RDF>
  </metadata>
  <defs
     id="defs11" />
  <sodipodi:namedview
     pagecolor="#ffffff"
     bordercolor="#666666"
     borderopacity="1"
     objecttolerance="10"
     gridtolerance="10"
     guidetolerance="10"
     inkscape:pageopacity="0"
     inkscape:pageshadow="2"
     inkscape:window-width="1906"
     inkscape:window-height="1125"
     id="namedview9"
     showgrid="false"
     inkscape:zoom="5.6568543"
     inkscape:cx="145.9227"
     inkscape:cy="88.286401"
     inkscape:window-x="0"
     inkscape:window-y="0"
     inkscape:window-maximized="0"
     inkscape:current-layer="svg7" />
  <!-- Generator: Sketch 45.2 (43514) - http://www.bohemiancoding.com/sketch -->
  <title
     id="title2">facebook-icon-single-path</title>
  <rect
     style="fill:#ffffff;fill-opacity:1;stroke:none;stroke-width:3.78366923;stroke-miterlimit:4;stroke-dasharray:none;stroke-opacity:1;paint-order:normal"
     id="rect4523"
     width="164.89301"
     height="225.47214"
     x="66.396187"
     y="31.003178" />
  <desc
     id="desc4">Created by Marc Choisnard</desc>
  <path
     id="facebook-icon"
     d="M178.409,258.307 L244.082,258.307 C251.936,258.307 258.305,     251.938 258.305,244.082 L258.305,14.812 C258.305, 6.955 251.937,     0.588 244.082,0.588 L14.812,0.588 C6.955,0.588 0.588,6.955 0.588,14.812     L0.588,244.082 C0.588,251.937 6.954,258.307 14.812,258.307     L138.243,258.307 L138.243,158.522 L104.658,158.522     L104.658,119.627 L138.243,119.627 L138.243,90.943     C138.243,57.656 158.573,39.530 188.268,39.530 C202.492,39.530     214.718,40.589 218.28,41.063 L218.28,75.851 L197.684,75.860     C181.536,75.860 178.409,83.534 178.409,94.795 L178.409,119.627     L216.924,119.627 L211.908,158.522 L178.409,158.522 L178.409,258.307 Z"
     stroke="none"
     fill-rule="nonzero"
     fill="#3b5998" />
</svg>
