<?xml version="1.0" encoding="iso-8859-1"?>
<!-- Generator: Adobe Illustrator 16.0.0, SVG Export Plug-In . SVG Version: 6.00 Build 0)  -->
<!DOCTYPE svg PUBLIC "-//W3C//DTD SVG 1.1//EN" "http://www.w3.org/Graphics/SVG/1.1/DTD/svg11.dtd">
<svg version="1.1" id="Capa_1" xmlns="http://www.w3.org/2000/svg" xmlns:xlink="http://www.w3.org/1999/xlink" x="0px" y="0px"
	 width="462.467px" height="462.467px" viewBox="0 0 462.467 462.467" style="enable-background:new 0 0 462.467 462.467;"
	 xml:space="preserve">
<g>
	<g>
		<path d="M286.494,359.288V345.76c0-2.039-1.652-3.691-3.691-3.691H179.667c-2.038,0-3.691,1.652-3.691,3.691v13.528
			c0,2.038,1.653,3.692,3.691,3.692h103.137C284.842,362.98,286.494,361.326,286.494,359.288z"/>
		<path d="M194.601,375.938c-2.039,0-3.692,1.652-3.692,3.689v13.529c0,2.039,1.653,3.691,3.692,3.691h73.267
			c2.039,0,3.691-1.652,3.691-3.691v-13.529c0-2.037-1.652-3.689-3.691-3.689H194.601z"/>
		<path d="M408.504,207.571c-0.783-1.147-2.011-1.917-3.385-2.123l-19.77-2.972c-1.74-0.266-3.483,0.408-4.603,1.764l-68.779,83.417
			c-1.321,1.603-1.515,3.854-0.486,5.658c5.634,9.879,11.545,21.488,18.539,36.418l-0.938,2.707
			c-7.391,20.608-15.284,38.275-22.227,49.746l-0.281,0.465c-0.041,0.068-0.08,0.137-0.118,0.205l-0.263,0.484
			c-7.043,13.021-18.169,24.822-31.328,33.227c-13.734,8.771-28.822,13.406-43.631,13.406c-32.423,0-61.318-23.959-75.562-47.686
			c-0.013-0.021-0.047-0.08-0.061-0.102c-6.94-11.467-14.833-29.134-22.213-49.707c-0.005-0.017-0.401-1.156-0.924-2.809
			c6.977-14.891,12.877-26.48,18.511-36.359c1.028-1.804,0.835-4.056-0.486-5.658l-68.36-82.904
			c-1.086-1.316-2.767-1.986-4.463-1.782l-20.189,2.462c-1.459,0.179-2.767,0.99-3.574,2.219c-0.807,1.229-1.033,2.752-0.616,4.162
			l18.644,63.097c0.442,1.498,1.56,2.703,3.02,3.258c4.736,1.799,8.371,7.094,10.238,14.91c0.011,0.047,0.022,0.093,0.035,0.138
			c4.199,15.614,13.195,42.306,23.832,66.767c6.295,15.744,12.602,28.875,18.738,39.016c17.576,29.279,55.21,63.473,103.43,63.473
			c41.294,0,82.865-25.537,103.482-63.561c6.132-10.148,12.419-23.25,18.688-38.938c10.639-24.464,19.632-51.149,23.829-66.755
			c0.013-0.046,0.024-0.092,0.035-0.137c1.867-7.817,5.502-13.112,10.238-14.911c1.086-0.412,2.19-1.118,2.568-2.199l19.175-64.468
			C409.56,210.14,409.289,208.718,408.504,207.571z"/>
		<path d="M267.868,329.109c2.039,0,3.691-1.652,3.691-3.691v-13.527c0-2.039-1.652-3.691-3.691-3.691h-73.267
			c-2.039,0-3.692,1.652-3.692,3.691v13.527c0,2.039,1.653,3.691,3.692,3.691H267.868z"/>
		<path d="M369.247,196.787c1.087-1.318,1.425-3.102,0.896-4.728c-0.529-1.626-1.853-2.868-3.507-3.295
			c-24.756-6.375-43.877-18.36-56.831-35.623c-9.807-13.067-15.771-28.738-17.729-46.578c-0.174-1.59-1.099-3-2.485-3.794
			c-1.39-0.795-3.073-0.877-4.531-0.223c-17.554,7.878-43.418,17.269-66.949,17.271c-9.444,0-17.834-1.532-24.938-4.555
			c-10.288-4.378-18.129-11.755-23.309-21.925c-1.061-2.084-3.427-3.156-5.69-2.576c-52.69,13.424-72.854,64.792-80.183,94.217
			c-0.39,1.563-0.002,3.219,1.042,4.446l71.116,83.678c0.952,1.121,2.346,1.764,3.81,1.764c0.068,0,0.135-0.002,0.204-0.004
			c1.537-0.063,2.959-0.83,3.856-2.078c19.751-27.481,40.482-39.737,67.217-39.737s47.464,12.256,67.215,39.737
			c0.905,1.26,2.345,2.027,3.895,2.078c1.556,0.059,3.037-0.618,4.023-1.815L369.247,196.787z"/>
		<path d="M75.828,93.594l2.292,35.57c0.155,2.412,1.897,4.427,4.262,4.93c2.362,0.5,4.774-0.629,5.898-2.771
			c20.036-38.182,51.499-60.919,90.989-65.754c0,0,6.037-0.816,8.073,1.151c1.698,1.642,2.896,6.464,2.896,6.464
			c2.393,9.979,7.305,16.426,15.017,19.706c4.468,1.9,9.862,2.864,16.035,2.864c27.084,0,65.771-19.812,76.617-25.603
			c9.665-5.161,17.532-3.341,14.917,10.573c-0.551,2.93-5.245,31.386,12.949,55.369c10.716,14.125,27.659,23.533,50.359,27.964
			c1.635,0.213,3.377-0.289,4.327-1.022c1.229-0.947,1.989-2.377,2.09-3.925l4.26-66.118c0,0,2.734-27.328-15.041-50.124
			C349.304,14.057,299.781,0,231.299,0c-68.481,0-117.58,14.394-140.47,42.868C72.397,65.8,75.673,88.626,75.828,93.594z"/>
	</g>
</g>
<g>
</g>
<g>
</g>
<g>
</g>
<g>
</g>
<g>
</g>
<g>
</g>
<g>
</g>
<g>
</g>
<g>
</g>
<g>
</g>
<g>
</g>
<g>
</g>
<g>
</g>
<g>
</g>
<g>
</g>
</svg>
