<?xml version="1.0" encoding="iso-8859-1"?>
<!-- Generator: Adobe Illustrator 16.0.0, SVG Export Plug-In . SVG Version: 6.00 Build 0)  -->
<!DOCTYPE svg PUBLIC "-//W3C//DTD SVG 1.1//EN" "http://www.w3.org/Graphics/SVG/1.1/DTD/svg11.dtd">
<svg version="1.1" id="Capa_1" xmlns="http://www.w3.org/2000/svg" xmlns:xlink="http://www.w3.org/1999/xlink" x="0px" y="0px"
	 width="453.197px" height="453.197px" viewBox="0 0 453.197 453.197" style="enable-background:new 0 0 453.197 453.197;"
	 xml:space="preserve">
<g>
	<g>
		<path d="M180.613,293.135c27.223,14.35,65.021,14.455,90.83,1.52c7.49-9.624,11.964-21.713,11.964-34.852
			c0-31.373-25.434-56.808-56.807-56.808s-56.807,25.435-56.807,56.808C169.792,272.26,173.813,283.77,180.613,293.135z"/>
		<path d="M316.964,188.398c-7.806-9.311-21.684-10.531-30.993-2.726c-9.312,7.806-10.531,21.682-2.727,30.993
			c16.875,20.128,23.305,37.707,19.107,52.246c-1.978,6.851-6.184,13.082-11.521,18.608c-25.732,32.074-96.732,33.574-128.463,0
			c-5.338-5.526-9.544-11.758-11.521-18.609c-4.196-14.54,2.232-32.118,19.107-52.246c7.806-9.311,6.586-23.187-2.726-30.993
			c-9.312-7.806-23.186-6.585-30.993,2.726c-26.926,32.118-36.214,63.376-27.606,92.91c6.563,22.517,23.918,42.826,50.188,58.734
			c5.916,3.583,11.668,6.568,16.782,8.982v104.174h102V349.025c5.114-2.416,10.866-5.401,16.782-8.983
			c26.271-15.907,43.626-36.219,50.188-58.733C353.178,251.775,343.89,220.516,316.964,188.398z"/>
		<g>
			<path d="M170.366,73.253c-0.515-0.979-1.606-1.503-2.696-1.289l-27.465,5.413c-0.9,0.177-1.631,0.833-1.903,1.709l-5.936,19.052
				c-0.384,1.231,0.231,2.551,1.421,3.049l22.715,9.518c0.308,0.129,0.637,0.194,0.966,0.194c0.25,0,0.501-0.038,0.743-0.113
				l24.539-7.642c0.709-0.221,1.283-0.745,1.566-1.431c0.284-0.687,0.249-1.463-0.097-2.12L170.366,73.253z"/>
			<path d="M238.689,131.918c-0.468-1.201-1.775-1.847-3.014-1.495l-23.686,6.75c-0.565,0.161-1.057,0.517-1.386,1.004
				l-14.395,21.293c-0.416,0.615-0.536,1.383-0.33,2.096c0.207,0.713,0.72,1.297,1.4,1.595l27.271,11.922
				c0.322,0.142,0.663,0.209,1,0.209c0.72,0,1.424-0.311,1.91-0.886l18.071-21.379c0.593-0.701,0.753-1.669,0.419-2.522
				L238.689,131.918z"/>
			<path d="M302.48,118.377l-5.324-25.145c-0.152-0.726-0.622-1.346-1.277-1.693c-0.657-0.347-1.434-0.383-2.119-0.101
				l-27.516,11.34c-1.022,0.421-1.646,1.464-1.535,2.564l2.83,27.85c0.093,0.913,0.678,1.701,1.523,2.054l18.416,7.685
				c0.313,0.131,0.64,0.193,0.962,0.193c0.898,0,1.76-0.486,2.207-1.324l11.594-21.729
				C302.518,119.553,302.603,118.953,302.48,118.377z"/>
			<path d="M213.723,125.2h4c1.381,0,2.5-1.119,2.5-2.5v-47c0-1.381-1.119-2.5-2.5-2.5h-4c-1.381,0-2.5,1.119-2.5,2.5v47
				C211.223,124.081,212.342,125.2,213.723,125.2z"/>
			<path d="M233.223,106.7h4c1.381,0,2.5-1.119,2.5-2.5V59.7c0-1.381-1.119-2.5-2.5-2.5h-4c-1.381,0-2.5,1.119-2.5,2.5v44.5
				C230.723,105.581,231.842,106.7,233.223,106.7z"/>
			<path d="M273.137,89.2h4c1.381,0,2.5-1.119,2.5-2.5v-47c0-1.381-1.119-2.5-2.5-2.5h-4c-1.381,0-2.5,1.119-2.5,2.5v47
				C270.637,88.081,271.756,89.2,273.137,89.2z"/>
			<path d="M292.637,70.7h4c1.381,0,2.5-1.119,2.5-2.5V23.7c0-1.381-1.119-2.5-2.5-2.5h-4c-1.381,0-2.5,1.119-2.5,2.5v44.5
				C290.137,69.581,291.256,70.7,292.637,70.7z"/>
			<path d="M157.65,64h4c1.381,0,2.5-1.119,2.5-2.5v-47c0-1.381-1.119-2.5-2.5-2.5h-4c-1.381,0-2.5,1.119-2.5,2.5v47
				C155.15,62.881,156.27,64,157.65,64z"/>
			<path d="M138.15,49.5h4c1.381,0,2.5-1.119,2.5-2.5V2.5c0-1.381-1.119-2.5-2.5-2.5h-4c-1.381,0-2.5,1.119-2.5,2.5V47
				C135.65,48.381,136.77,49.5,138.15,49.5z"/>
		</g>
	</g>
</g>
<g>
</g>
<g>
</g>
<g>
</g>
<g>
</g>
<g>
</g>
<g>
</g>
<g>
</g>
<g>
</g>
<g>
</g>
<g>
</g>
<g>
</g>
<g>
</g>
<g>
</g>
<g>
</g>
<g>
</g>
</svg>
