<?xml version="1.0" encoding="iso-8859-1"?>
<!-- Generator: Adobe Illustrator 16.0.0, SVG Export Plug-In . SVG Version: 6.00 Build 0)  -->
<!DOCTYPE svg PUBLIC "-//W3C//DTD SVG 1.1//EN" "http://www.w3.org/Graphics/SVG/1.1/DTD/svg11.dtd">
<svg version="1.1" id="Capa_1" xmlns="http://www.w3.org/2000/svg" xmlns:xlink="http://www.w3.org/1999/xlink" x="0px" y="0px"
	 width="457.912px" height="457.912px" viewBox="0 0 457.912 457.912" style="enable-background:new 0 0 457.912 457.912;"
	 xml:space="preserve">
<g>
	<g>
		<g>
			<path d="M46.473,241.108c0.062,0,0.125,0,0.187,0c5.04-0.036,49.982-0.654,75.64-10.847
				c11.974-4.756,30.015-16.615,46.383-28.337c3.912,3.978,8.42,7.167,13.292,9.519c2.408,24.648,2.433,68.683-15.866,123.621
				c-4.363,13.101,2.719,27.257,15.818,31.619c2.622,0.874,5.284,1.288,7.904,1.288c10.469,0,20.225-6.628,23.715-17.105
				c20.73-62.237,21.046-113.484,18.129-144.032l88.728-55.588c0.79-0.495,1.557-1.014,2.308-1.547
				c15.317,15.483,40.819,34.643,77.865,42.137c1.339,0.271,2.672,0.401,3.987,0.401c9.318,0,17.661-6.551,19.58-16.039
				c2.19-10.826-4.811-21.378-15.637-23.568c-36.655-7.415-57.714-30.059-65.616-40.343c0.108-2.971-0.063-5.962-0.514-8.934
				c23.409,18.687,57.626,16.536,78.457-5.7c21.898-23.376,20.701-60.081-2.674-81.98c-23.377-21.9-60.082-20.703-81.98,2.673
				c-13.683,14.605-18.35,34.412-14.226,52.561c-2.647-1.803-5.455-3.322-8.375-4.552c-14.904-7.451-75.095-32.802-158.156-5.119
				c-10.479,3.493-16.144,14.819-12.65,25.298c3.492,10.48,14.821,16.144,25.297,12.65c24.201-8.065,48.056-11.532,71.188-10.385
				l-61.869,38.762c-7.406,4.639-13.098,10.974-16.912,18.179c-20.774,15.864-46.298,33.949-56.634,38.055
				c-12.815,5.091-42.106,7.189-57.547,7.316c-13.808,0.101-24.918,11.376-24.816,25.183
				C21.579,230.038,32.75,241.108,46.473,241.108z"/>
		</g>
		<g>
			<path d="M450.325,446.037L430.406,284.76c-0.619-5.01-4.876-8.774-9.925-8.774H240.59c-0.755,6.443-1.705,13.112-2.896,20
				h173.944l2.472,20.008H244.476c-1.287-0.505-8.214-3.229-9.98-3.622c-2.884,13.243-6.634,27.16-11.462,41.653
				c-4.771,14.323-18.113,23.946-33.202,23.946c-3.756,0-7.479-0.605-11.064-1.801c-8.869-2.954-16.058-9.187-20.24-17.547
				c-4.184-8.361-4.859-17.851-1.905-26.721c2.941-8.83,5.396-17.36,7.439-25.572c-6.984-0.209-22.076,0.549-30.494,9.662H43.85
				l2.472-20.008h120.134c1.486-6.93,2.678-13.602,3.617-20H37.481c-5.049,0-9.306,3.765-9.925,8.774l-20,161.927
				c-0.352,2.845,0.534,5.703,2.433,7.851c1.899,2.146,4.626,3.376,7.492,3.376h423c0.007,0,0.013,0,0.02,0
				C446.024,457.913,451.249,452.725,450.325,446.037z M416.581,335.994l2.47,20H253.023c-0.463-6.596-1.246-14.041-2.096-20
				H416.581z M252.438,375.994h169.084l2.463,19.998l-200.288,0.002C223.698,395.994,249.189,390.769,252.438,375.994z
				 M41.38,335.994h82.979c-0.032,0.948-0.033,1.917,0.031,2.919c0.723,11.194,4.243,14.631,9,17.081H38.91L41.38,335.994z
				 M36.44,375.994h116.375c1.113,6.503,0.35,13.169,4.069,20H33.969L36.44,375.994z M28.791,437.913l2.724-22.047l394.947,0.127
				l2.707,21.919L28.791,437.913L28.791,437.913z"/>
		</g>
	</g>
</g>
<g>
</g>
<g>
</g>
<g>
</g>
<g>
</g>
<g>
</g>
<g>
</g>
<g>
</g>
<g>
</g>
<g>
</g>
<g>
</g>
<g>
</g>
<g>
</g>
<g>
</g>
<g>
</g>
<g>
</g>
</svg>
