<?xml version="1.0" encoding="iso-8859-1"?>
<!-- Generator: Adobe Illustrator 16.0.0, SVG Export Plug-In . SVG Version: 6.00 Build 0)  -->
<!DOCTYPE svg PUBLIC "-//W3C//DTD SVG 1.1//EN" "http://www.w3.org/Graphics/SVG/1.1/DTD/svg11.dtd">
<svg version="1.1" id="Capa_1" xmlns="http://www.w3.org/2000/svg" xmlns:xlink="http://www.w3.org/1999/xlink" x="0px" y="0px"
	 width="479.596px" height="479.597px" viewBox="0 0 479.596 479.597" style="enable-background:new 0 0 479.596 479.597;"
	 xml:space="preserve">
<g>
	<g>
		<path d="M296.647,241.486c-4.219-1.707-8.647-2.571-13.164-2.571c-14.389,0-27.171,8.618-32.57,21.959l-0.451,1.114
			c-3.52,8.696-3.44,18.242,0.219,26.881c3.661,8.64,10.468,15.334,19.163,18.854l12.061,4.881
			c4.218,1.707,8.646,2.572,13.162,2.572c0.001,0,0.001,0,0.002,0c14.387,0,27.17-8.618,32.567-21.953l0.455-1.122
			c3.52-8.694,3.441-18.241-0.22-26.88c-3.661-8.638-10.468-15.333-19.164-18.854L296.647,241.486z"/>
		<path d="M228.68,260.872c-5.396-13.339-18.179-21.957-32.568-21.957c-4.517,0-8.946,0.864-13.165,2.571l-12.058,4.881
			c-17.953,7.266-26.648,27.781-19.384,45.732l0.453,1.12c5.398,13.337,18.182,21.955,32.569,21.955c0.001,0,0.001,0,0.002,0
			c4.515,0,8.943-0.865,13.162-2.571l12.059-4.882c8.697-3.519,15.502-10.214,19.164-18.853c3.662-8.639,3.739-18.186,0.218-26.885
			L228.68,260.872z"/>
		<path d="M392.075,236.548l-19.677-5.959l0.02-36.125c0-1.289-0.512-2.525-1.422-3.438c-0.912-0.911-2.148-1.424-3.438-1.424
			H112.09c-2.683,0-4.858,2.173-4.859,4.855l-0.028,36.129l-19.681,5.961c-2.493,0.754-3.947,3.341-3.297,5.861l14.184,55.064
			c0.378,1.471,1.422,2.68,2.821,3.268c3.356,1.412,6.526,4.683,6.526,7.586c0,0,0.02,2.25,0.026,2.34
			c2.509,39.462,24.063,75.024,57.837,95.698c0.51,40.471,33.59,73.232,74.178,73.232c40.589,0,73.67-32.764,74.18-73.232
			c33.774-20.675,55.327-56.236,57.836-95.697c0.007-0.091,0.025-2.339,0.025-2.339c0-2.947,3.169-6.176,6.527-7.588
			c1.398-0.588,2.442-1.797,2.82-3.268l14.185-55.064C396.022,239.888,394.568,237.302,392.075,236.548z M339.475,302.896
			c0,26.98-12.373,52.45-33.367,69.25c-12.521-25.052-37.914-40.918-66.311-40.918c-28.396,0-53.789,15.866-66.31,40.918
			c-20.995-16.8-33.367-42.27-33.367-69.25v-22.191c0-22.946,8.678-44.584,24.479-61.154h150.396
			c15.802,16.57,24.479,38.208,24.479,61.154V302.896z"/>
		<path d="M100.081,165.151h279.435c1.505-0.086,2.885-0.864,3.735-2.108c0.85-1.244,1.076-2.813,0.608-4.245l-0.072-0.226
			c-2.778-8.512-6.978-21.374-6.978-39.968C376.809,53.206,315.345,0,239.795,0c-75.55,0-137.014,53.206-137.014,118.604
			c0,18.587-4.194,31.449-6.962,39.937l-0.083,0.256c-0.466,1.434-0.241,3.001,0.609,4.245
			C97.196,164.286,98.576,165.065,100.081,165.151z"/>
	</g>
</g>
<g>
</g>
<g>
</g>
<g>
</g>
<g>
</g>
<g>
</g>
<g>
</g>
<g>
</g>
<g>
</g>
<g>
</g>
<g>
</g>
<g>
</g>
<g>
</g>
<g>
</g>
<g>
</g>
<g>
</g>
</svg>
