<?xml version="1.0" encoding="iso-8859-1"?>
<!-- Generator: Adobe Illustrator 16.0.0, SVG Export Plug-In . SVG Version: 6.00 Build 0)  -->
<!DOCTYPE svg PUBLIC "-//W3C//DTD SVG 1.1//EN" "http://www.w3.org/Graphics/SVG/1.1/DTD/svg11.dtd">
<svg version="1.1" id="Capa_1" xmlns="http://www.w3.org/2000/svg" xmlns:xlink="http://www.w3.org/1999/xlink" x="0px" y="0px"
	 width="468.37px" height="468.371px" viewBox="0 0 468.37 468.371" style="enable-background:new 0 0 468.37 468.371;"
	 xml:space="preserve">
<g>
	<g>
		<path d="M344.204,369.494c8.132,8.131,21.361,8.131,29.492,0c8.132-8.133,8.132-21.361,0.001-29.492l-93.367-93.367l36.478,2.618
			c6.523,0.47,12.5-0.984,16.823-4.094c0.798-0.573,1.546-1.207,2.224-1.886c3.105-3.104,4.857-7.153,5.205-12.03
			c0.983-13.682-4.683-24.124-21.792-28.273c0,0-101.511-22.245-126.614-34.513c-25.104-12.267-69.194-55.889-69.194-55.889
			c-0.421-0.5-1.034-0.801-1.686-0.83c-0.655-0.026-1.291,0.221-1.754,0.684L0.685,231.586c-0.463,0.464-0.711,1.102-0.682,1.756
			c0.029,0.656,0.332,1.268,0.835,1.689l214.332,214.11c8.13,8.132,21.362,8.132,29.492,0c8.133-8.131,8.131-21.36,0-29.492
			l-57.117-57.116l5.288-5.289l81.81,81.811c8.13,8.131,21.361,8.131,29.492-0.001c8.13-8.13,8.13-21.36,0-29.491l-81.81-81.81
			l5.289-5.289L332.948,427.8c8.132,8.131,21.362,8.131,29.493,0c8.132-8.132,8.131-21.361-0.001-29.492L257.106,292.972
			l5.288-5.289L344.204,369.494z M188.963,273.933c2.038,2.036,3.16,4.746,3.16,7.629c0,2.882-1.124,5.592-3.163,7.632
			c-2.037,2.038-4.747,3.16-7.628,3.16s-5.592-1.123-7.631-3.162l-24.152-24.149l-24.153,24.15
			c-2.038,2.038-4.748,3.161-7.631,3.161c-2.882,0-5.593-1.123-7.632-3.163c-2.038-2.036-3.16-4.746-3.16-7.629
			c0-2.884,1.123-5.594,3.161-7.631l24.152-24.153l-24.151-24.147c-4.209-4.211-4.208-11.059-0.001-15.267
			c2.039-2.038,4.749-3.161,7.631-3.161c2.883,0,5.593,1.124,7.632,3.163l24.152,24.148l24.153-24.151
			c2.039-2.038,4.749-3.161,7.63-3.161c2.883,0,5.593,1.124,7.632,3.165c2.037,2.036,3.16,4.745,3.16,7.628
			c0,2.883-1.123,5.594-3.161,7.634l-24.149,24.148L188.963,273.933z"/>
		<path d="M453.188,115.622l-172.009-86.62l1.167-2.317c2.321-4.611,0.466-10.231-4.146-12.554
			c-4.612-2.324-10.232-0.468-12.554,4.144l-27.144,53.9c-2.321,4.611-0.466,10.23,4.146,12.554
			c4.611,2.322,10.231,0.467,12.554-4.146l1.168-2.316l172.009,86.62c13.604,6.85,30.186,1.375,37.038-12.229
			C472.267,139.054,466.793,122.472,453.188,115.622z M452.891,146.351c-3.361,6.677-11.528,9.372-18.205,6.011L302.795,85.944
			l39.099-10.666l104.986,52.868C453.557,131.508,456.252,139.675,452.891,146.351z"/>
		<path d="M237.5,151.525c11.004,0,19.925-8.92,19.925-19.924S237.5,94.923,237.5,94.923s-19.923,25.674-19.923,36.678
			S226.498,151.525,237.5,151.525z"/>
	</g>
</g>
<g>
</g>
<g>
</g>
<g>
</g>
<g>
</g>
<g>
</g>
<g>
</g>
<g>
</g>
<g>
</g>
<g>
</g>
<g>
</g>
<g>
</g>
<g>
</g>
<g>
</g>
<g>
</g>
<g>
</g>
</svg>
