<?xml version="1.0" encoding="iso-8859-1"?>
<!-- Generator: Adobe Illustrator 16.0.0, SVG Export Plug-In . SVG Version: 6.00 Build 0)  -->
<!DOCTYPE svg PUBLIC "-//W3C//DTD SVG 1.1//EN" "http://www.w3.org/Graphics/SVG/1.1/DTD/svg11.dtd">
<svg version="1.1" id="Capa_1" xmlns="http://www.w3.org/2000/svg" xmlns:xlink="http://www.w3.org/1999/xlink" x="0px" y="0px"
	 width="449.15px" height="449.15px" viewBox="0 0 449.15 449.15" style="enable-background:new 0 0 449.15 449.15;"
	 xml:space="preserve">
<g>
	<path d="M340.437,400.292h-4.442V144.225c0-31.486-20.888-59.54-50.937-68.621V51.301h32.938c3.59,0,6.5-2.91,6.5-6.5V17.705
		c0-3.59-2.91-6.5-6.5-6.5h-32.938V6.5c0-3.59-2.91-6.5-6.5-6.5h-28.521c-2.961,0-5.457,1.978-6.244,4.684h-31.729
		c-0.915,0-1.82,0.193-2.654,0.567l-94.539,42.297c-1.252,0.56-2.295,1.501-2.979,2.689l-8.81,15.298
		c-1.626,2.823-0.91,6.413,1.673,8.398l7.129,5.478c2.583,1.984,6.237,1.751,8.546-0.548l8.921-8.881l47.073-20.435l-30.076,39.792
		c-0.853,1.128-1.314,2.504-1.314,3.918l-0.003,18.598c0,1.724,0.685,3.377,1.903,4.597c1.218,1.22,2.872,1.904,4.597,1.904h13.863
		c3.58,0,6.488-2.897,6.5-6.478l0.036-10.641l59.202-44.636h12.403v19.004c-30.047,9.081-50.935,37.134-50.935,68.621v256.066
		h-4.443c-3.59,0-6.5,2.91-6.5,6.5v35.858c0,3.59,2.91,6.5,6.5,6.5h152.279c3.591,0,6.5-2.91,6.5-6.5v-35.858
		C346.937,403.202,344.027,400.292,340.437,400.292z M255.452,296.592c0.002-8.051,4.096-15.021,12.539-25.875
		c6.832,8.658,9.767,16.883,9.213,25.724c-0.018,0.27-0.019,0.538-0.011,0.804h-21.712
		C255.479,297.024,255.473,296.807,255.452,296.592z M309.324,297.243h-14.709c2.14-5.792,2.855-12.032,2.033-18.254
		c-2.776-21.174-17.825-35.754-26.55-42.562c-2.16-1.686-5.007-2.213-7.627-1.418c-2.622,0.795-4.694,2.815-5.554,5.418
		c-1.925,5.823-6.006,11.711-9.976,17.437c-2.365,3.413-4.6,6.637-6.276,9.778c-5.153,9.98-6.112,20.336-2.828,29.602h-18.454
		v-71.107h89.939L309.324,297.243L309.324,297.243z"/>
</g>
<g>
</g>
<g>
</g>
<g>
</g>
<g>
</g>
<g>
</g>
<g>
</g>
<g>
</g>
<g>
</g>
<g>
</g>
<g>
</g>
<g>
</g>
<g>
</g>
<g>
</g>
<g>
</g>
<g>
</g>
</svg>
