<?xml version="1.0" encoding="iso-8859-1"?>
<!-- Generator: Adobe Illustrator 16.0.0, SVG Export Plug-In . SVG Version: 6.00 Build 0)  -->
<!DOCTYPE svg PUBLIC "-//W3C//DTD SVG 1.1//EN" "http://www.w3.org/Graphics/SVG/1.1/DTD/svg11.dtd">
<svg version="1.1" id="Capa_1" xmlns="http://www.w3.org/2000/svg" xmlns:xlink="http://www.w3.org/1999/xlink" x="0px" y="0px"
	 width="439px" height="439px" viewBox="0 0 439 439" style="enable-background:new 0 0 439 439;" xml:space="preserve">
<g>
	<path d="M437.661,332.208l-37.178-39.965c-0.946-1.018-2.272-1.596-3.661-1.596h-50.247l-83-80.128
		c6.78-11.763,7.255-24.292,7.257-24.328c0.706-12.53-3.51-24.639-11.566-33.22c-3.689-3.932-8.308-7.368-13.724-10.212
		c-4.136-2.171-8.364-3.767-12.856-5.462c-1.119-0.423-2.236-0.845-3.353-1.276l0.004-17.707h2.61c2.762,0,5-2.238,5-5v-44
		c0-2.761-2.238-5-5-5h-3.305c0.018-2.209,0.03-4.358,0.043-6.44l0.006-1.06h19.422c2.762,0,5-2.238,5-5V36.647c0-2.761-2.238-5-5-5
		h-19.04c0.05-2.256-0.087-4.586-0.005-7.214c0.043-1.36-0.27-2.68-1.221-3.652c-0.949-0.974-2.24-1.398-3.617-1.407l-9.652-0.02
		c-1.347,0.011-2.632,0.564-3.565,1.536c-0.933,0.972-1.259,2.277-1.216,3.624c0.084,2.616-0.029,4.919,0.02,7.133H190.78
		c-2.761,0-5,2.239-5,5v15.167c0,2.762,2.239,5,5,5h19.423l0.011,1.761c0.011,1.862,0.023,3.776,0.039,5.739h-3.304
		c-2.761,0-5,2.239-5,5v44c0,2.762,2.239,5,5,5h2.661l-0.069,23.165c-0.002,0.824,0.199,1.636,0.585,2.363l2.985,5.614
		c0.303,0.569,0.714,1.076,1.209,1.49c1.807,1.509,3.933,2.686,5.999,3.828c0.67,0.37,1.336,0.739,1.986,1.116
		c4.272,2.477,7.317,4.702,9.875,7.215c2.87,2.822,5.024,6.208,6.228,9.789c1.173,3.499,1.766,7.534,1.811,12.297
		c0,0.131-0.071,13.163-7.974,21.078c-4.037,4.043-9.418,6.102-15.998,6.118c-0.055,0-0.109,0.001-0.164,0.003
		c-7.361,0.268-14.951-2.809-20.663-8.324c-2.126-2.054-3.99-4.485-5.538-7.229c-1.188-2.105-3.712-3.058-5.996-2.267
		c-2.284,0.794-3.672,3.107-3.299,5.496c0.232,1.482,0.552,2.95,0.95,4.364l-89.379,86.216H42.178c-1.389,0-2.715,0.578-3.661,1.595
		L1.339,332.208C0.479,333.132,0,334.35,0,335.612v79.033c0,2.764,2.239,5,5,5h429c2.761,0,5-2.236,5-5v-79.033
		C439,334.351,438.521,333.134,437.661,332.208z M83.333,410.235H54.5v-57.421h28.833V410.235z M83.349,333.706H54.523
		l31.997-33.707h28.401L83.349,333.706z M120.734,290.647l71.347-68.542l0.071,0.069c3.608,3.541,7.731,6.39,12.253,8.465
		c4.112,1.887,8.635,3.098,14.227,3.811c0,0,18.9,2.15,31.597-8.895l0.066-0.051l67.711,65.143H120.734z M384.5,410.235h-28.833
		v-57.421H384.5V410.235z M355.648,333.706l-31.275-33.707h28.114l32.023,33.707H355.648z"/>
</g>
<g>
</g>
<g>
</g>
<g>
</g>
<g>
</g>
<g>
</g>
<g>
</g>
<g>
</g>
<g>
</g>
<g>
</g>
<g>
</g>
<g>
</g>
<g>
</g>
<g>
</g>
<g>
</g>
<g>
</g>
</svg>
