<?xml version="1.0" encoding="iso-8859-1"?>
<!-- Generator: Adobe Illustrator 16.0.0, SVG Export Plug-In . SVG Version: 6.00 Build 0)  -->
<!DOCTYPE svg PUBLIC "-//W3C//DTD SVG 1.1//EN" "http://www.w3.org/Graphics/SVG/1.1/DTD/svg11.dtd">
<svg version="1.1" id="Capa_1" xmlns="http://www.w3.org/2000/svg" xmlns:xlink="http://www.w3.org/1999/xlink" x="0px" y="0px"
	 width="462.792px" height="462.792px" viewBox="0 0 462.792 462.792" style="enable-background:new 0 0 462.792 462.792;"
	 xml:space="preserve">
<g>
	<g>
		<path d="M112.893,259.1c28.362,4.584,51.671,6.906,69.276,6.907c0.004,0,0.006,0,0.007,0c21.373,0,29.601-3.364,32.737-6.187
			c0.886-0.795,1.477-1.865,1.679-3.038l9.962-57.646c0.21-1.22-0.014-2.476-0.631-3.549c-1.264-2.193-4.223-7.329-34.466-12.53
			c-18.021-3.099-40.844-5.383-64.265-6.431c-2.101-0.087-4.042,1.052-4.978,2.923c-6.441,12.87-16.791,39.698-13.757,74.775
			C108.667,256.747,110.495,258.713,112.893,259.1z"/>
		<path d="M448.068,271.461c5.13-20.027,46.247-191.09-36.521-222.229c-32.525-11.736-69.728-17.687-110.57-17.687
			c-76.192,0-152.922,20.852-203.873,38.345C41.98,88.816,4.186,108.053,3.81,108.245c-2.518,1.288-4.012,3.966-3.788,6.784
			c0.224,2.819,2.121,5.228,4.811,6.104l99.698,32.464c0.603,0.196,1.229,0.31,1.863,0.337
			c77.142,3.354,132.381,13.574,144.16,26.672c2.132,2.372,3.128,4.927,2.964,7.597l-0.059,0.465l-14.412,83.431
			c-0.027,0.166-0.052,0.334-0.067,0.5c-0.107,1.086-0.679,3.258-3.293,5.603c-4.915,4.407-17.377,9.663-48.85,9.663
			c-24.93,0-58.25-3.344-99.035-9.938c-3.078-0.495-6.118,1.103-7.448,3.925L48.552,349.3c-0.508,1.075-0.732,2.263-0.653,3.449
			c0.287,4.321,5.952,40.587,9.938,50.083c0.567,1.352,1.545,2.49,2.795,3.258l39.337,24.125c1.114,0.684,2.383,1.031,3.66,1.031
			c0.794,0,1.592-0.135,2.358-0.408l343.757-123.035c3.312-1.186,5.229-4.644,4.48-8.08L448.068,271.461z"/>
	</g>
</g>
<g>
</g>
<g>
</g>
<g>
</g>
<g>
</g>
<g>
</g>
<g>
</g>
<g>
</g>
<g>
</g>
<g>
</g>
<g>
</g>
<g>
</g>
<g>
</g>
<g>
</g>
<g>
</g>
<g>
</g>
</svg>
