<?xml version="1.0" encoding="iso-8859-1"?>
<!-- Generator: Adobe Illustrator 16.0.0, SVG Export Plug-In . SVG Version: 6.00 Build 0)  -->
<!DOCTYPE svg PUBLIC "-//W3C//DTD SVG 1.1//EN" "http://www.w3.org/Graphics/SVG/1.1/DTD/svg11.dtd">
<svg version="1.1" id="Capa_1" xmlns="http://www.w3.org/2000/svg" xmlns:xlink="http://www.w3.org/1999/xlink" x="0px" y="0px"
	 width="468.085px" height="468.085px" viewBox="0 0 468.085 468.085" style="enable-background:new 0 0 468.085 468.085;"
	 xml:space="preserve">
<g>
	<path d="M428.033,3.772c-0.945-1.009-2.267-1.582-3.648-1.582H308.914c-1.078,0-2.128,0.349-2.992,0.994l-7.145,5.336
		C287.591,5.516,263.091,0,234.042,0c-29.048,0-53.549,5.516-64.734,8.52l-7.145-5.336c-0.864-0.646-1.914-0.994-2.992-0.994H43.701
		c-1.383,0-2.703,0.573-3.648,1.582c-0.945,1.009-1.431,2.364-1.342,3.744L49.853,178.13c0.07,1.078,0.487,2.103,1.189,2.924
		l32.973,38.564l10.25,243.677c0.112,2.677,2.315,4.79,4.995,4.79h269.567c2.68,0,4.883-2.113,4.995-4.79l10.25-243.678
		l32.972-38.563c0.703-0.821,1.12-1.846,1.19-2.924L429.374,7.516C429.464,6.136,428.979,4.781,428.033,3.772z M117.06,291.365
		c-0.058-1.361,0.443-2.688,1.386-3.67c0.943-0.983,2.247-1.541,3.609-1.541h60.451c2.561,0,4.708,1.936,4.973,4.482l2.604,25
		c0.147,1.409-0.311,2.812-1.259,3.865c-0.949,1.052-2.299,1.652-3.715,1.652h-62.003c-2.68,0-4.883-2.111-4.995-4.789
		L117.06,291.365z M119.583,351.365c-0.058-1.361,0.442-2.688,1.386-3.67c0.944-0.983,2.247-1.541,3.609-1.541h64.178
		c2.561,0,4.708,1.936,4.973,4.482l2.604,25c0.147,1.409-0.311,2.813-1.259,3.865c-0.948,1.052-2.298,1.653-3.714,1.653h-65.73
		c-2.68,0-4.883-2.112-4.995-4.79L119.583,351.365z M201.003,436.432c-0.948,1.053-2.298,1.653-3.714,1.653h-69.266
		c-2.681,0-4.884-2.112-4.995-4.79l-0.923-21.93c-0.058-1.362,0.443-2.688,1.386-3.671c0.943-0.983,2.247-1.54,3.609-1.54h67.904
		c2.561,0,4.708,1.935,4.973,4.481l2.284,21.931C202.41,433.976,201.952,435.38,201.003,436.432z M263.951,40.775l-26.916,20.103
		c-0.889,0.663-1.939,0.994-2.993,0.994s-2.104-0.331-2.992-0.994l-26.9-20.092c-1.632-1.219-2.361-3.306-1.844-5.276
		c0.518-1.97,2.178-3.429,4.197-3.689c9.386-1.208,18.65-1.82,27.539-1.82c8.922,0,18.191,0.609,27.551,1.809
		c2.021,0.259,3.683,1.718,4.2,3.688C266.311,37.469,265.582,39.557,263.951,40.775z M345.057,433.295
		c-0.112,2.677-2.314,4.79-4.996,4.79h-69.266c-1.415,0-2.766-0.601-3.713-1.652c-0.948-1.052-1.406-2.457-1.26-3.864l2.283-21.931
		c0.266-2.547,2.412-4.481,4.973-4.481h67.904c1.36,0,2.665,0.556,3.608,1.54c0.943,0.983,1.443,2.309,1.385,3.67L345.057,433.295z
		 M347.451,376.365c-0.112,2.678-2.315,4.79-4.995,4.79h-65.731c-1.416,0-2.766-0.602-3.713-1.653
		c-0.948-1.052-1.406-2.457-1.259-3.865l2.604-25c0.266-2.547,2.412-4.482,4.974-4.482h64.178c1.362,0,2.666,0.557,3.609,1.541
		c0.941,0.982,1.442,2.309,1.386,3.67L347.451,376.365z M349.975,316.365c-0.112,2.678-2.313,4.789-4.994,4.789h-62.005
		c-1.416,0-2.766-0.601-3.714-1.652s-1.406-2.457-1.259-3.865l2.604-25c0.266-2.547,2.412-4.482,4.974-4.482h60.451
		c1.36,0,2.666,0.557,3.608,1.541c0.942,0.982,1.443,2.309,1.386,3.67L349.975,316.365z"/>
</g>
<g>
</g>
<g>
</g>
<g>
</g>
<g>
</g>
<g>
</g>
<g>
</g>
<g>
</g>
<g>
</g>
<g>
</g>
<g>
</g>
<g>
</g>
<g>
</g>
<g>
</g>
<g>
</g>
<g>
</g>
</svg>
