<?xml version="1.0" encoding="iso-8859-1"?>
<!-- Generator: Adobe Illustrator 16.0.0, SVG Export Plug-In . SVG Version: 6.00 Build 0)  -->
<!DOCTYPE svg PUBLIC "-//W3C//DTD SVG 1.1//EN" "http://www.w3.org/Graphics/SVG/1.1/DTD/svg11.dtd">
<svg version="1.1" id="Capa_1" xmlns="http://www.w3.org/2000/svg" xmlns:xlink="http://www.w3.org/1999/xlink" x="0px" y="0px"
	 width="457px" height="457px" viewBox="0 0 457 457" style="enable-background:new 0 0 457 457;" xml:space="preserve">
<g>
	<g>
		<path d="M220.34,280.508c1.731,0.07,3.452,0.035,5.152-0.117c5.511,8.954,10.078,14.41,12.834,24.773
			c2.755,10.365,3.807,47.221,3.605,52.598c-0.434,11.441,8.489,21.068,19.932,21.5c0.268,0.012,0.533,0.018,0.8,0.018
			c20.209,0,20.767-21.833,20.767-21.833c0.115-3.76,0.249-10.549,0.088-18.629l-0.757-16.585
			c-0.803-10.789-2.317-21.837-5.099-30.18c-3.816-11.45-11.86-25.521-18.789-36.516c0.596-1.496,1.119-3.035,1.541-4.631
			l14.181-53.676c16.576,23.312,36.505,37.303,58.1,40.645c0.858,0.133,1.714,0.199,2.557,0.199c8.04,0,15.103-5.859,16.37-14.053
			c1.399-9.052-4.802-17.526-13.854-18.926c-27.298-4.225-46.831-41.739-54.301-61.432c-0.585-2.249-5.741-13.739-13.897-21.285
			c24.761-1.962,44.249-22.663,44.249-47.93c0-26.563-21.534-48.097-48.098-48.097c-26.562,0-48.097,21.534-48.097,48.097
			c0,15.274,7.128,28.876,18.23,37.686c-10,2.72-64.031,20.151-100.25,87.037c-4.361,8.055-1.367,18.12,6.688,22.481
			c2.51,1.359,5.215,2.004,7.883,2.004c5.891,0,11.597-3.147,14.599-8.691c9.447-17.448,21.011-32.264,34.497-44.288l-15.824,59.891
			c-1.852,7.008-1.704,14.068,0.073,20.592c-3.575,21.37-8.766,46.778-12.699,55.135c-2.062,4.381-6.218,10.113-11.026,15.937
			l-15.049,16.585c-1.654,1.676-3.23,3.189-4.604,4.534c-16.055,15.714,0.695,30.679,0.695,30.679
			c3.879,3.375,8.73,5.078,13.592,5.078c5.13,0,10.319-1.842,14.281-5.707c27.661-26.982,40.396-51.169,40.396-51.169
			C213.358,312.312,217.265,295.953,220.34,280.508z"/>
		<path d="M27,387.779h118.507c-4.11-1.248-7.946-3.346-11.234-6.205l-0.098-0.086c-0.809-0.725-6.271-5.82-9.178-13.71h-35.33v-20
			h35.52c1.479-3.68,3.943-7.641,7.96-11.573l1.095-1.067c1.01-0.984,2.105-2.05,3.241-3.197l3.776-4.162H89.667V74.221v-0.008
			h20.966c5.523,0,10-4.477,10-10s-4.477-10-10-10H89.667V36.221c0-5.523-4.477-10-10-10s-10,4.477-10,10v18h-21
			c-5.523,0-10,4.477-10,10s4.477,10,10,10h21v253.559H44c-5.523,0-10,4.477-10,10s4.477,10,10,10h25.667v20H27
			c-5.523,0-10,4.477-10,10S21.477,387.779,27,387.779z"/>
		<path d="M230.908,327.778h-13.435c-1.384,2.497-5.672,9.905-13.127,20h27.48C231.663,342.045,231.354,334.715,230.908,327.778z"/>
		<path d="M293.516,338.619c0.066,3.31,0.083,6.403,0.073,9.159H432c5.523,0,10-4.478,10-10s-4.477-10-10-10H293.023
			L293.516,338.619z"/>
		<path d="M145.5,410.779H10c-5.523,0-10,4.477-10,10c0,5.521,4.477,10,10,10h135.5c5.523,0,10-4.479,10-10
			C155.5,415.256,151.023,410.779,145.5,410.779z"/>
		<path d="M240.111,379.439c-3.147-3.396-5.442-7.369-6.791-11.661h-0.987c-5.523,0-10,4.478-10,10.001c0,5.521,4.477,10,10,10
			h20.812C248.213,386.182,243.736,383.35,240.111,379.439z"/>
		<path d="M430,367.778H291.646c-2.715,8.329-8.688,16.683-19.002,20.001H430c5.523,0,10-4.479,10-10
			C440,372.256,435.523,367.778,430,367.778z"/>
		<path d="M447,410.779H248c-5.523,0-10,4.477-10,10c0,5.521,4.477,10,10,10h199c5.523,0,10-4.479,10-10
			C457,415.256,452.523,410.779,447,410.779z"/>
	</g>
</g>
<g>
</g>
<g>
</g>
<g>
</g>
<g>
</g>
<g>
</g>
<g>
</g>
<g>
</g>
<g>
</g>
<g>
</g>
<g>
</g>
<g>
</g>
<g>
</g>
<g>
</g>
<g>
</g>
<g>
</g>
</svg>
