<?xml version="1.0" encoding="iso-8859-1"?>
<!-- Generator: Adobe Illustrator 16.0.0, SVG Export Plug-In . SVG Version: 6.00 Build 0)  -->
<!DOCTYPE svg PUBLIC "-//W3C//DTD SVG 1.1//EN" "http://www.w3.org/Graphics/SVG/1.1/DTD/svg11.dtd">
<svg version="1.1" id="Capa_1" xmlns="http://www.w3.org/2000/svg" xmlns:xlink="http://www.w3.org/1999/xlink" x="0px" y="0px"
	 width="443.77px" height="443.77px" viewBox="0 0 443.77 443.77" style="enable-background:new 0 0 443.77 443.77;"
	 xml:space="preserve">
<g>
	<path d="M441.7,152.558L291.193,2.051c-1.79-1.79-4.405-2.474-6.841-1.79c-2.436,0.683-4.312,2.627-4.911,5.086
		C255.803,102.555,154.46,221.647,94.195,285.851c-4.806-0.891-9.696-1.341-14.59-1.341c-21.269,0-41.263,8.281-56.302,23.317
		c-31.046,31.05-31.046,81.569,0.001,112.62c15.039,15.037,35.036,23.32,56.309,23.322c0.003,0,0.005,0,0.008,0
		c21.267,0,41.262-8.283,56.301-23.324c18.762-18.76,26.824-44.996,21.98-70.893c64.205-60.267,183.297-161.606,280.504-185.244
		c2.457-0.598,4.401-2.476,5.086-4.912C444.174,156.962,443.488,154.347,441.7,152.558z"/>
</g>
<g>
</g>
<g>
</g>
<g>
</g>
<g>
</g>
<g>
</g>
<g>
</g>
<g>
</g>
<g>
</g>
<g>
</g>
<g>
</g>
<g>
</g>
<g>
</g>
<g>
</g>
<g>
</g>
<g>
</g>
</svg>
