<?xml version="1.0" encoding="iso-8859-1"?>
<!-- Generator: Adobe Illustrator 16.0.0, SVG Export Plug-In . SVG Version: 6.00 Build 0)  -->
<!DOCTYPE svg PUBLIC "-//W3C//DTD SVG 1.1//EN" "http://www.w3.org/Graphics/SVG/1.1/DTD/svg11.dtd">
<svg version="1.1" id="Capa_1" xmlns="http://www.w3.org/2000/svg" xmlns:xlink="http://www.w3.org/1999/xlink" x="0px" y="0px"
	 width="456.05px" height="456.05px" viewBox="0 0 456.05 456.05" style="enable-background:new 0 0 456.05 456.05;"
	 xml:space="preserve">
<g>
	<path d="M452.41,288.977C353.411,229.551,280.494,20.541,279.717,18.454c-3.844-10.316-9.551-16.179-16.926-16.179
		c-4.538,0-10.274,2.656-11.828,15.313c-0.334,2.726-0.689,5.908-1.061,9.301l-5.165-9.762C237.402,3.26,231.648,3.26,229.758,3.26
		c-3.213,0-7.402,1.926-8.636,7.362c-1.097,4.866-3.252,17.563-4.619,26.536c-0.894,5.855-0.988,11.795-1.08,17.539
		c-0.258,16.104-0.962,26.316-11.702,33.054c-4.496,2.819-8.959,5.453-13.275,7.999c-15.796,9.318-30.716,18.119-44.315,34.114
		c-5.694,6.694-9.94,13.875-14.046,20.818c-2.586,4.374-5.029,8.505-7.809,12.524c-5.648,8.16-14.049,12.296-23.774,17.084
		c-0.874,0.43-1.751,0.862-2.632,1.3c-21.711,10.787-43.657,21.97-64.882,32.785l-11.405,5.81c-1.638,0.834-3.325,1.607-4.957,2.355
		c-7.988,3.662-21.358,9.792-14.933,25.594c4.149,10.201,18.678,21.047,24.732,25.236c18.055,12.492,39.742,18.564,66.304,18.564
		c9.141,0,18.282-0.69,27.364-1.756c-0.109,0.037-0.221,0.074-0.33,0.111c-1.76,0.586-3.528,1.176-5.299,1.782
		c-3.413,1.167-7.938,2.423-12.729,3.752c-21.96,6.093-35.495,10.349-36.996,20.608c-0.523,3.58,0.438,8.845,7.988,13.591
		c15.295,9.612,42.467,15.825,69.225,15.825c15.996,0,31.732-2.059,46.772-6.12c5.306-1.433,10.954-3.776,16.935-6.259
		c9.717-4.031,20.73-8.601,29.785-8.601c1.741,0,3.33,0.162,4.82,0.492c1.186,2.339,2.418,8.108,2.913,10.429
		c0.177,0.829,0.342,1.603,0.499,2.291c8.255,36.367,17.092,72.771,26.174,109.972c0.82,3.357,3.829,5.721,7.286,5.721h18.438
		c2.729,0,5.24-1.48,6.562-3.865c33.839-61.081,86.718-106.704,148.892-128.466c3.009-1.053,5.022-3.893,5.022-7.079v-18.959
		C456.05,292.773,454.668,290.332,452.41,288.977z"/>
</g>
<g>
</g>
<g>
</g>
<g>
</g>
<g>
</g>
<g>
</g>
<g>
</g>
<g>
</g>
<g>
</g>
<g>
</g>
<g>
</g>
<g>
</g>
<g>
</g>
<g>
</g>
<g>
</g>
<g>
</g>
</svg>
