<?xml version="1.0" encoding="iso-8859-1"?>
<!-- Generator: Adobe Illustrator 16.0.0, SVG Export Plug-In . SVG Version: 6.00 Build 0)  -->
<!DOCTYPE svg PUBLIC "-//W3C//DTD SVG 1.1//EN" "http://www.w3.org/Graphics/SVG/1.1/DTD/svg11.dtd">
<svg version="1.1" id="Capa_1" xmlns="http://www.w3.org/2000/svg" xmlns:xlink="http://www.w3.org/1999/xlink" x="0px" y="0px"
	 width="468.157px" height="468.156px" viewBox="0 0 468.157 468.156" style="enable-background:new 0 0 468.157 468.156;"
	 xml:space="preserve">
<g>
	<g>
		<path d="M423.109,220.907c-15.047-18.68-42.39-21.627-61.068-6.582c-9.488,7.642-14.908,18.456-15.981,29.695
			c-0.979-0.006-1.959,0.029-2.937,0.102l-7.047-25.827l9.32-38.098c2.146-8.78-3.229-17.638-12.009-19.787
			c-8.778-2.148-17.639,3.229-19.786,12.008l-10.326,42.211c-0.66,2.697-0.623,5.519,0.106,8.197l10.045,36.809l-50.782,40.902
			c-3.586,2.889-6.484,6.312-8.687,10.062l-54.062,13.781c-4.697,1.197-8.84,3.974-11.732,7.865l-35.158,47.298
			c-6.959,9.36-5.012,22.588,4.35,29.545c3.785,2.814,8.201,4.172,12.58,4.172c6.451,0,12.82-2.945,16.965-8.521l30.689-41.284
			l27.231-6.941l-21.766,24.205c-3.234,3.599-5.137,8.199-5.387,13.031l-2.695,52.199c-0.602,11.646,8.354,21.577,20.002,22.179
			c0.371,0.02,0.738,0.028,1.104,0.028c11.164,0,20.49-8.753,21.072-20.029l2.312-44.729l33.614-37.388
			c0.158-0.174,0.289-0.362,0.439-0.54c5.496-1.166,10.811-3.604,15.485-7.371l45.638-36.757l7.106,26.051l-9.32,38.098
			c-2.146,8.78,3.229,17.639,12.009,19.787c1.307,0.318,2.614,0.472,3.901,0.472c7.365,0,14.058-5.007,15.886-12.479l10.325-42.211
			c0.66-2.696,0.623-5.519-0.106-8.196l-13.627-49.942c0.231-0.682,0.442-1.37,0.635-2.062c11.994,2.193,24.836-0.636,35.076-8.884
			C435.207,266.928,438.154,239.588,423.109,220.907z"/>
		<path d="M266.029,257.954c1.367,2.396,3.887,3.788,6.521,3.788c0.846,0,1.702-0.145,2.536-0.444
			c3.431-1.234,5.476-4.756,4.851-8.347L243.037,41.558c-0.422-2.422-2.006-4.483-4.235-5.516c-2.23-1.033-4.826-0.907-6.947,0.337
			l-75.336,44.214l-7.641-73.865c-0.229-2.204-1.42-4.194-3.254-5.437s-4.123-1.61-6.256-1.006L40.891,28.249
			c-2.131,0.605-3.885,2.122-4.793,4.144c-0.908,2.021-0.875,4.34,0.09,6.335l71.016,146.917c0.91,1.885,2.568,3.303,4.572,3.912
			c2.004,0.608,4.17,0.352,5.977-0.708l81.615-47.9L266.029,257.954z"/>
	</g>
</g>
<g>
</g>
<g>
</g>
<g>
</g>
<g>
</g>
<g>
</g>
<g>
</g>
<g>
</g>
<g>
</g>
<g>
</g>
<g>
</g>
<g>
</g>
<g>
</g>
<g>
</g>
<g>
</g>
<g>
</g>
</svg>
