<?xml version="1.0" encoding="iso-8859-1"?>
<!-- Generator: Adobe Illustrator 16.0.0, SVG Export Plug-In . SVG Version: 6.00 Build 0)  -->
<!DOCTYPE svg PUBLIC "-//W3C//DTD SVG 1.1//EN" "http://www.w3.org/Graphics/SVG/1.1/DTD/svg11.dtd">
<svg version="1.1" id="Capa_1" xmlns="http://www.w3.org/2000/svg" xmlns:xlink="http://www.w3.org/1999/xlink" x="0px" y="0px"
	 width="459.436px" height="459.436px" viewBox="0 0 459.436 459.436" style="enable-background:new 0 0 459.436 459.436;"
	 xml:space="preserve">
<g>
	<g>
		<path d="M432.033,129.515c-0.397-2.416-2.485-4.188-4.935-4.188H281.591c-2.75,0-4.982,2.22-5,4.97l-0.176,29.425
			c-0.01,1.689,0.834,3.271,2.244,4.202l118.312,78.167c0.826,0.546,1.786,0.828,2.756,0.828c0.457,0,0.916-0.063,1.364-0.19
			c1.401-0.396,2.56-1.386,3.172-2.707c13.354-28.799,28.488-61.441,29.098-95.479C433.437,140.381,432.989,135.325,432.033,129.515
			z"/>
		<path d="M266.008,100.154c-0.002-2.582-1.971-4.738-4.543-4.975c-20.938-1.921-45.056-4.882-68.442-7.754
			c-16.519-2.029-33.601-4.127-49.577-5.853c-2.41-0.258-4.634,1.229-5.326,3.535c-2.806,9.356-4.771,19.215-6.504,27.902
			l-0.079,0.393c-0.517,2.588-1.59,9.316-2.457,14.752c-0.729,4.563-1.357,8.503-1.703,10.359c-0.067,0.362-0.102,0.715-0.102,1.047
			c0,0.199,0.012,0.398,0.036,0.597c0.177,1.47,0.932,2.83,2.494,5.376c1.068,1.74,2.279,3.713,3.096,5.987
			c6.415,17.866-7.555,33.154-19.881,46.645l-1.861,2.04c-5.01,5.513-10.919,13.337-10.618,19.305
			c0.112,2.212,0.997,4.123,2.559,5.526c2.104,1.891,4.554,3.06,6.924,4.189c2.679,1.276,5.209,2.483,7.133,4.656
			c5.711,6.452,3.298,16.651,0.269,24.073c-0.103,0.25-0.184,0.508-0.244,0.771c-1.226,5.336,1.944,8.836,3.648,10.718
			c0.392,0.433,0.964,1.062,1.166,1.396c-0.03,0.779-0.242,1.708-0.484,2.771c-0.698,3.062-1.656,7.26,0.952,12.19
			c0.625,1.183,1.435,1.992,2.025,2.584c0.145,0.146,0.295,0.289,0.43,0.446c8.777,10.234,8.152,17.63,7.285,27.871l-0.079,0.939
			c-1.037,12.332,6.374,20.998,22.026,25.756c4.003,1.215,9.179,2.12,14.658,3.078c12.425,2.174,30.209,6.303,35.464,12.262
			c5.624,6.377,14.841,18.178,14.841,18.178c0.964,1.193,2.403,1.858,3.891,1.858c0.452,0,0.908-0.062,1.356-0.188
			c17-4.793,30.857-8.921,38.303-11.138c2.122-0.633,3.575-2.584,3.573-4.797L266.008,100.154z"/>
		<path d="M394.234,365.867c-11.081-19.754-16.114-29.461-16.654-34.758c-2.285-22.357,5.684-43.442,13.332-61.451
			c0.929-2.188,0.188-4.727-1.769-6.073l-105.226-72.439c-1.53-1.054-3.516-1.171-5.158-0.309c-1.644,0.862-2.674,2.564-2.677,4.421
			l-0.25,179.471l-0.228,0.072c-1.7,0.518-10.87,3.302-24.4,7.238l-42.938,11.938c-56.674,14.583-85.942,21.007-125.813,27.5
			c-5.906-31.88-18.922-110.404-20.894-160.875c-3.095-79.247,4.466-158.31,9.411-193.1c48.581,1.854,72.184,3.852,90.346,5.732
			c11.806,1.364,23.813,2.839,35.452,4.268c27.022,3.318,54.966,6.751,77.771,8.546l4.966,0.391l-0.372,4.965
			c-0.161,2.149-0.312,4.35-0.46,6.597c-0.09,1.38,0.396,2.735,1.341,3.744c0.945,1.009,2.267,1.582,3.648,1.582h135.065
			c0.005,0,0.015,0,0.021,0c2.762,0,4.711-2.254,5-5c0.394-3.733-6.125-16.804-8.889-21.893
			c-3.812-7.021-11.925-14.277-19.081-20.678c-3.703-3.313-7.201-6.443-10.27-9.61C354.207,13.801,328.053,0,298.056,0
			c-2.702,0-5.474,0.118-8.237,0.352c-40.966,3.462-101.802,19.866-133.354,38.503c-46.637-3.916-84.697-5.928-109.909-5.72
			c-2.177,0.018-4.045,1.566-4.625,3.664c0,0-21.153,93.419-14.605,225.141c3.188,64.12,22.363,173.566,24.974,182.627l2.631,11.029
			c0.543,2.279,2.58,3.84,4.858,3.84c0.249,0,0.502-0.019,0.755-0.057c0.838-0.127,84.62-12.936,156.668-32.326l36.651-10.188
			l10.932,13.543c1.418,1.756,3.836,2.345,5.901,1.438l123.762-54.357c1.29-0.566,2.279-1.65,2.729-2.985s0.313-2.798-0.373-4.027
			C395.946,368.923,395.063,367.347,394.234,365.867z"/>
	</g>
</g>
<g>
</g>
<g>
</g>
<g>
</g>
<g>
</g>
<g>
</g>
<g>
</g>
<g>
</g>
<g>
</g>
<g>
</g>
<g>
</g>
<g>
</g>
<g>
</g>
<g>
</g>
<g>
</g>
<g>
</g>
</svg>
