<?xml version="1.0" encoding="iso-8859-1"?>
<!-- Generator: Adobe Illustrator 16.0.0, SVG Export Plug-In . SVG Version: 6.00 Build 0)  -->
<!DOCTYPE svg PUBLIC "-//W3C//DTD SVG 1.1//EN" "http://www.w3.org/Graphics/SVG/1.1/DTD/svg11.dtd">
<svg version="1.1" id="Capa_1" xmlns="http://www.w3.org/2000/svg" xmlns:xlink="http://www.w3.org/1999/xlink" x="0px" y="0px"
	 width="433.143px" height="433.143px" viewBox="0 0 433.143 433.143" style="enable-background:new 0 0 433.143 433.143;"
	 xml:space="preserve">
<g>
	<path d="M425.914,238.504c3.866,0,7-3.135,7-7V196.53c0-3.866-3.134-7-7-7H406.35V7c0-3.866-3.134-7-7-7H244.446
		c-3.055,0-5.757,1.981-6.676,4.894l-70.85,224.547l-19.589,3.254L212.83,8.971c0.62-2.116,0.206-4.4-1.115-6.164
		c-1.322-1.764-3.398-2.803-5.603-2.803h-32.588c-3.107,0-5.843,2.049-6.717,5.031L78.328,306.818l-60.232-17.846
		c-1.778-0.527-3.696-0.326-5.328,0.561c-1.632,0.886-2.845,2.383-3.372,4.164l-8.88,29.973c-1.098,3.707,1.017,7.602,4.724,8.699
		l96.981,28.734c0.905,0.27,1.691,0.256,2.711,0.246h4.926c-0.265,2.377-0.398,4.77-0.398,7.164
		c0,35.637,28.993,64.629,64.63,64.629c35.639,0,64.633-28.992,64.633-64.629c0-2.395-0.134-4.787-0.399-7.164h29.924
		c-0.265,2.377-0.396,4.768-0.396,7.164c0,35.637,28.993,64.629,64.63,64.629c35.638,0,64.631-28.992,64.631-64.629
		c0-2.395-0.134-4.787-0.398-7.164h29.204c3.866,0,7-3.135,7-7v-45.011c0-3.866-3.134-7-7-7h-99.678v-11.333h99.678
		c3.866,0,7-3.135,7-7v-27.167c0-3.866-3.134-7-7-7h-99.678v-11.333h99.675V238.504z M174.089,399.197
		c-16.921,0-30.686-13.766-30.686-30.686c0-16.921,13.765-30.688,30.686-30.688s30.687,13.767,30.687,30.688
		C204.775,385.432,191.009,399.197,174.089,399.197z M332.478,337.824c16.92,0,30.687,13.767,30.687,30.688
		c0,16.92-13.767,30.686-30.687,30.686c-16.922,0-30.687-13.766-30.687-30.686C301.792,351.592,315.556,337.824,332.478,337.824z
		 M324.591,126.206c9.031-3.521,15.434-12.297,15.434-22.574c0-13.38-10.846-24.226-24.228-24.226
		c-13.38,0-24.226,10.846-24.226,24.226c0,10.241,6.358,18.992,15.341,22.537c-4.248,1.986-7.694,5.359-9.792,9.515
		c-8.285,4.006-18.526,7.469-27.341,6.423c-5.707-0.676-10.896,3.406-11.577,9.121c-0.677,5.715,3.407,10.897,9.122,11.575
		c1.887,0.223,3.776,0.327,5.666,0.327c7.31,0,14.565-1.563,21.205-3.783c-2.953,21.27-11.297,37.183-11.297,37.183h-54.55
		l46.649-147.849h82.668V196.53h-30.885c5.553-13.19,10.525-31.126,9.78-52.212C336.278,136.248,331.423,129.428,324.591,126.206z"
		/>
</g>
<g>
</g>
<g>
</g>
<g>
</g>
<g>
</g>
<g>
</g>
<g>
</g>
<g>
</g>
<g>
</g>
<g>
</g>
<g>
</g>
<g>
</g>
<g>
</g>
<g>
</g>
<g>
</g>
<g>
</g>
</svg>
