<?xml version="1.0" encoding="iso-8859-1"?>
<!-- Generator: Adobe Illustrator 16.0.0, SVG Export Plug-In . SVG Version: 6.00 Build 0)  -->
<!DOCTYPE svg PUBLIC "-//W3C//DTD SVG 1.1//EN" "http://www.w3.org/Graphics/SVG/1.1/DTD/svg11.dtd">
<svg version="1.1" id="Capa_1" xmlns="http://www.w3.org/2000/svg" xmlns:xlink="http://www.w3.org/1999/xlink" x="0px" y="0px"
	 width="476.669px" height="476.669px" viewBox="0 0 476.669 476.669" style="enable-background:new 0 0 476.669 476.669;"
	 xml:space="preserve">
<g>
	<path d="M469.668,269.394h-2.84V187.42c0-1.545-0.511-3.046-1.453-4.271l-48.377-62.835c-1.325-1.721-3.375-2.729-5.547-2.729
		h-96.752c-3.866,0-7,3.134-7,7v37.688h-3.934v-0.298c0-3.866-3.134-7-7-7h-26.459c-3.865,0-7,3.134-7,7v0.298h-5.615v-0.298
		c0-3.866-3.135-7-7-7h-26.459c-3.866,0-7,3.134-7,7v0.298h-5.615v-0.298c0-3.866-3.134-7-7-7h-26.459c-3.866,0-7,3.134-7,7v0.298
		h-5.615v-0.298c0-3.866-3.134-7-7-7h-26.459c-3.866,0-7,3.134-7,7v0.298h-5.617v-0.298c0-3.866-3.134-7-7-7H86.009
		c-3.866,0-7,3.134-7,7v0.298h-5.616v-0.298c0-3.866-3.134-7-7-7H39.934c-3.866,0-7,3.134-7,7v0.298H20.125c-3.866,0-7,3.134-7,7
		v100.121H7c-3.866,0-7,3.133-7,7v41.463c0,3.865,3.134,7,7,7h26.528c3.333,19.41,20.284,34.228,40.632,34.228
		c20.348,0,37.299-14.815,40.632-34.228h9.158c3.333,19.41,20.284,34.228,40.631,34.228c20.348,0,37.3-14.815,40.633-34.228h114.104
		c3.333,19.41,20.283,34.228,40.631,34.228s37.3-14.815,40.633-34.228h69.087c3.866,0,7-3.135,7-7v-41.463
		C476.668,272.528,473.534,269.394,469.668,269.394z M74.16,334.808c-9.346,0-16.948-7.604-16.948-16.951
		c0-9.345,7.603-16.947,16.948-16.947c9.345,0,16.949,7.604,16.949,16.947C91.109,327.204,83.505,334.808,74.16,334.808z
		 M164.581,334.808c-9.347,0-16.947-7.604-16.947-16.951c0-9.345,7.601-16.947,16.947-16.947c9.345,0,16.949,7.604,16.949,16.947
		C181.53,327.204,173.926,334.808,164.581,334.808z M359.948,334.808c-9.346,0-16.947-7.604-16.947-16.951
		c0-9.345,7.603-16.947,16.947-16.947c9.344,0,16.95,7.604,16.95,16.947C376.898,327.204,369.293,334.808,359.948,334.808z
		 M435.613,215.128l-99.028-0.043v-67.693h63.011l36.043,48.219L435.613,215.128z"/>
</g>
<g>
</g>
<g>
</g>
<g>
</g>
<g>
</g>
<g>
</g>
<g>
</g>
<g>
</g>
<g>
</g>
<g>
</g>
<g>
</g>
<g>
</g>
<g>
</g>
<g>
</g>
<g>
</g>
<g>
</g>
</svg>
