<?xml version="1.0" encoding="iso-8859-1"?>
<!-- Generator: Adobe Illustrator 16.0.0, SVG Export Plug-In . SVG Version: 6.00 Build 0)  -->
<!DOCTYPE svg PUBLIC "-//W3C//DTD SVG 1.1//EN" "http://www.w3.org/Graphics/SVG/1.1/DTD/svg11.dtd">
<svg version="1.1" id="Capa_1" xmlns="http://www.w3.org/2000/svg" xmlns:xlink="http://www.w3.org/1999/xlink" x="0px" y="0px"
	 width="460.119px" height="460.119px" viewBox="0 0 460.119 460.119" style="enable-background:new 0 0 460.119 460.119;"
	 xml:space="preserve">
<g>
	<g>
		<path d="M198.913,198.538c13.479-14.984,15.097-36.553,5.485-53.114c-7.589,3.738-14.2,9.159-19.352,15.776
			c2.472,7.033,1.134,15.17-4.193,21.092c-7.763,8.63-21.101,9.335-29.731,1.572l-35.316-31.77
			c-5.269-4.74-7.577-11.556-6.815-18.112l16.186,14.561c3.431-7.588,7.681-14.727,12.62-21.32l-12.561-11.3
			c6.213-1.399,12.964,0.031,18.163,4.39c5.383-6.13,11.416-11.669,17.985-16.526l-1.172-1.055
			c-9.709-8.733-22.182-12.481-34.267-11.429c-0.229-12.128-5.271-24.138-14.979-32.871L75.648,26.663
			C57.061,9.941,28.333,11.46,11.613,30.049C-5.109,48.637-3.59,77.363,14.998,94.084l35.316,31.77
			c9.708,8.733,22.181,12.48,34.267,11.429c0.229,12.128,5.271,24.136,14.979,32.87l35.316,31.77
			C153.466,218.645,182.191,217.125,198.913,198.538z M101.536,94.603l-24.14-21.715c-4.987-4.486-12.667-4.08-17.152,0.907
			c-4.486,4.987-4.081,12.666,0.906,17.152l24.14,21.715c-6.438,1.45-13.46-0.127-18.729-4.867l-35.316-31.77
			c-8.63-7.763-9.335-21.101-1.573-29.731c7.765-8.63,21.102-9.335,29.731-1.571L94.72,76.492
			C99.989,81.231,102.296,88.048,101.536,94.603z"/>
		<path d="M448.507,30.049c-16.721-18.588-45.448-20.107-64.036-3.386l-35.317,31.769c-9.708,8.733-14.75,20.742-14.979,32.871
			c-12.085-1.052-24.559,2.696-34.268,11.429l-1.172,1.055c6.569,4.857,12.603,10.396,17.985,16.526
			c5.199-4.359,11.95-5.789,18.163-4.39l-12.562,11.3c4.939,6.594,9.189,13.732,12.62,21.32l16.187-14.561
			c0.762,6.556-1.546,13.372-6.815,18.112l-35.316,31.77c-8.63,7.763-21.968,7.058-29.73-1.572
			c-5.327-5.922-6.665-14.06-4.193-21.092c-5.151-6.617-11.763-12.038-19.352-15.776c-9.612,16.561-7.994,38.129,5.484,53.114
			c16.722,18.589,45.447,20.107,64.036,3.385l35.316-31.77c9.708-8.733,14.75-20.742,14.979-32.87
			c12.085,1.051,24.558-2.696,34.267-11.429l35.315-31.77C463.71,77.364,465.229,48.637,448.507,30.049z M428.876,76.025
			l-35.316,31.77c-5.269,4.74-12.292,6.317-18.729,4.867l24.14-21.715c4.987-4.486,5.393-12.166,0.906-17.152
			c-4.485-4.987-12.165-5.394-17.152-0.907l-24.14,21.715c-0.763-6.555,1.547-13.371,6.815-18.111l35.317-31.769
			c8.63-7.764,21.967-7.059,29.73,1.571C438.211,54.925,437.506,68.263,428.876,76.025z"/>
		<path d="M130.699,155.844l25.917,23.313c2.7,2.429,6.193,3.767,9.835,3.767c0.889,0,1.765-0.096,2.627-0.252
			c5.819-28.334,30.951-49.709,60.981-49.709c29.764,0,54.702,21.002,60.809,48.962c1.245,0.349,2.538,0.548,3.855,0.547
			c3.531,0,6.917-1.296,9.534-3.65l25.264-22.728c-15.645-39.638-54.332-67.756-99.462-67.756
			C185.024,88.337,146.408,116.339,130.699,155.844z"/>
		<path d="M352.75,223.803h-15.814v-23.459l-7.362,6.623c-9.57,8.61-21.943,13.352-34.838,13.352c-0.811,0-1.618-0.026-2.425-0.062
			v3.548H167.809v-3.973c-0.457,0.013-0.912,0.036-1.37,0.036c-12.782,0-25.048-4.701-34.536-13.237l-8.719-7.842v25.016H107.37
			c-3.497,0-6.33,2.834-6.33,6.331v208.603c0,3.497,2.833,6.331,6.33,6.331h245.38c3.497,0,6.329-2.834,6.329-6.331V230.133
			C359.079,226.637,356.247,223.803,352.75,223.803z M247.598,362.447v23.941c0,9.686-7.853,17.538-17.538,17.538
			c-9.686,0-17.538-7.853-17.538-17.538v-23.941c-4.634-4.547-7.513-10.875-7.513-17.881c0-13.834,11.216-25.051,25.051-25.051
			s25.051,11.216,25.051,25.051C255.11,351.572,252.231,357.9,247.598,362.447z"/>
	</g>
</g>
<g>
</g>
<g>
</g>
<g>
</g>
<g>
</g>
<g>
</g>
<g>
</g>
<g>
</g>
<g>
</g>
<g>
</g>
<g>
</g>
<g>
</g>
<g>
</g>
<g>
</g>
<g>
</g>
<g>
</g>
</svg>
