<?xml version="1.0" encoding="iso-8859-1"?>
<!-- Generator: Adobe Illustrator 16.0.0, SVG Export Plug-In . SVG Version: 6.00 Build 0)  -->
<!DOCTYPE svg PUBLIC "-//W3C//DTD SVG 1.1//EN" "http://www.w3.org/Graphics/SVG/1.1/DTD/svg11.dtd">
<svg version="1.1" id="Capa_1" xmlns="http://www.w3.org/2000/svg" xmlns:xlink="http://www.w3.org/1999/xlink" x="0px" y="0px"
	 width="407.977px" height="407.977px" viewBox="0 0 407.977 407.977" style="enable-background:new 0 0 407.977 407.977;"
	 xml:space="preserve">
<g>
	<g>
		<path d="M60.075,86.749l2.124,32.969c0.144,2.236,1.758,4.104,3.95,4.569c2.189,0.463,4.425-0.583,5.467-2.567
			c18.571-35.39,47.733-56.464,84.336-60.946c0,0,5.596-0.757,7.483,1.067c1.574,1.521,2.684,5.991,2.684,5.991
			c2.218,9.25,6.771,15.225,13.919,18.265c4.141,1.762,9.141,2.655,14.863,2.655c25.103,0,60.961-18.363,71.014-23.731
			c8.958-4.784,16.25-3.096,13.826,9.801c-0.51,2.715-4.861,29.09,12.003,51.32c9.932,13.092,25.636,21.813,46.677,25.919
			c1.516,0.197,3.129-0.268,4.012-0.948c1.139-0.878,1.844-2.203,1.937-3.638l3.948-61.283c0,0,2.536-25.33-13.94-46.459
			C313.555,13.03,267.654,0,204.18,0C140.706,0,95.196,13.341,73.98,39.733C56.895,60.987,59.931,82.143,60.075,86.749z"/>
		<path d="M276.512,137.06c-8.66-11.541-13.928-25.384-15.656-41.146c-0.174-1.59-1.1-3-2.486-3.794
			c-1.389-0.794-3.072-0.877-4.53-0.222c-15.562,6.983-38.48,15.308-59.305,15.308c-8.323,0-15.711-1.348-21.959-4.006
			c-9.03-3.841-15.912-10.319-20.456-19.251c-1.058-2.08-3.418-3.152-5.676-2.583c-26.587,6.689-47.061,24.704-60.851,53.545
			c-4.684,9.797-8.456,20.605-11.209,32.122c-0.356,1.488-0.011,3.058,0.938,4.26c0.949,1.202,2.395,1.903,3.925,1.903h230.571
			c2.387,0,4.441-1.688,4.905-4.03c0.463-2.342-0.794-4.685-3.001-5.594C297.017,157.521,285.171,148.6,276.512,137.06z"/>
		<path d="M359.262,183.567c-2.269-0.772-5.749-1.25-9.729-1.751l-7.8-0.988l0.298-4.621c0.165-2.558-1.631-4.826-4.159-5.252
			l-0.347-0.056c-1.638-0.283-3.307,0.266-4.457,1.463l-11.858,12.345c-0.743,0.773-1.217,1.765-1.354,2.829l-6.057,47.263h-85.405
			l-4.277-41.321c-0.264-2.549-2.412-4.485-4.974-4.485h-30.309c-2.562,0-4.709,1.937-4.974,4.485l-4.277,41.321H94.178
			l-6.056-47.263c-0.136-1.063-0.611-2.055-1.354-2.829L74.91,172.362c-1.15-1.197-2.821-1.747-4.457-1.463l-0.347,0.056
			c-2.527,0.426-4.323,2.694-4.159,5.252l0.298,4.621l-7.798,0.987c-3.982,0.502-7.463,0.979-9.73,1.751
			c-2.05,0.698-3.417,2.636-3.388,4.801c0.023,1.688,0.362,3.769,1.008,6.183l16.227,52.332c0.475,1.417,1.483,1.787,2.568,2.199
			c4.035,1.532,7.146,6.104,8.762,12.87c0.011,0.047,0.022,0.093,0.035,0.139c5.552,20.643,23.864,73.955,42.109,97.902
			c7.595,9.969,24.459,21.857,46.269,32.615c19.969,9.85,36.142,14.906,41.248,15.35c0.144,0.014,0.289,0.02,0.433,0.02
			s0.289-0.006,0.433-0.02c5.105-0.443,21.278-5.5,41.247-15.35c21.811-10.758,38.674-22.646,46.27-32.615
			c18.246-23.947,36.557-77.26,42.108-97.902c0.013-0.046,0.023-0.091,0.035-0.139c1.616-6.766,4.729-11.338,8.762-12.87
			c1.085-0.412,2.193-1.063,2.568-2.199l16.228-52.332c0.646-2.415,0.984-4.495,1.008-6.183
			C362.678,186.202,361.312,184.264,359.262,183.567z"/>
	</g>
</g>
<g>
</g>
<g>
</g>
<g>
</g>
<g>
</g>
<g>
</g>
<g>
</g>
<g>
</g>
<g>
</g>
<g>
</g>
<g>
</g>
<g>
</g>
<g>
</g>
<g>
</g>
<g>
</g>
<g>
</g>
</svg>
