<?xml version="1.0" encoding="iso-8859-1"?>
<!-- Generator: Adobe Illustrator 16.0.0, SVG Export Plug-In . SVG Version: 6.00 Build 0)  -->
<!DOCTYPE svg PUBLIC "-//W3C//DTD SVG 1.1//EN" "http://www.w3.org/Graphics/SVG/1.1/DTD/svg11.dtd">
<svg version="1.1" id="Capa_1" xmlns="http://www.w3.org/2000/svg" xmlns:xlink="http://www.w3.org/1999/xlink" x="0px" y="0px"
	 width="491.954px" height="491.954px" viewBox="0 0 491.954 491.954" style="enable-background:new 0 0 491.954 491.954;"
	 xml:space="preserve">
<g>
	<path d="M491.27,250.244L367.204,38.334c-0.651-1.114-1.683-1.881-2.842-2.235c-0.483-0.154-0.994-0.234-1.513-0.234H302.37
		c-1.273,0-2.5,0.486-3.427,1.36l-52.966,49.868l-52.966-49.869c-0.927-0.874-2.153-1.36-3.427-1.36h-60.295
		c-1.8-0.072-3.569,0.818-4.536,2.47L0.685,250.244c-0.692,1.184-0.869,2.598-0.489,3.914c0.38,1.316,1.284,2.419,2.5,3.05
		l60.847,31.581c2.363,1.227,5.273,0.385,6.618-1.912l67.348-115.029l-0.034,279.245c0,1.326,0.526,2.598,1.464,3.536
		c0.938,0.938,2.209,1.465,3.536,1.465h206.808c2.761,0,4.999-2.237,5-4.998l0.148-279.269l67.359,115.05
		c1.345,2.298,4.254,3.139,6.617,1.912l60.849-31.581c1.216-0.631,2.12-1.733,2.5-3.05
		C492.139,252.841,491.962,251.427,491.27,250.244z M220.644,404.11H165.31c-2.761,0-5-2.239-5-5s2.239-5,5-5h55.334
		c2.761,0,5,2.239,5,5S223.405,404.11,220.644,404.11z M326.645,404.11h-55.334c-2.761,0-5-2.239-5-5s2.239-5,5-5h55.334
		c2.761,0,5,2.239,5,5S329.405,404.11,326.645,404.11z"/>
</g>
<g>
</g>
<g>
</g>
<g>
</g>
<g>
</g>
<g>
</g>
<g>
</g>
<g>
</g>
<g>
</g>
<g>
</g>
<g>
</g>
<g>
</g>
<g>
</g>
<g>
</g>
<g>
</g>
<g>
</g>
</svg>
