<?xml version="1.0" encoding="iso-8859-1"?>
<!-- Generator: Adobe Illustrator 16.0.0, SVG Export Plug-In . SVG Version: 6.00 Build 0)  -->
<!DOCTYPE svg PUBLIC "-//W3C//DTD SVG 1.1//EN" "http://www.w3.org/Graphics/SVG/1.1/DTD/svg11.dtd">
<svg version="1.1" id="Capa_1" xmlns="http://www.w3.org/2000/svg" xmlns:xlink="http://www.w3.org/1999/xlink" x="0px" y="0px"
	 width="459.96px" height="459.961px" viewBox="0 0 459.96 459.961" style="enable-background:new 0 0 459.96 459.961;"
	 xml:space="preserve">
<g>
	<path d="M391.355,333.087c0-0.271-0.016-0.543-0.045-0.813L359.808,46.682c-0.188-1.694-0.946-3.275-2.151-4.48l-26.293-26.293
		c-1.406-1.407-3.313-2.197-5.303-2.197H270.86C259.152,4.827,244.892,0,229.979,0s-29.174,4.827-40.881,13.712h-55.247
		c-1.989,0-3.896,0.79-5.303,2.197l-26.294,26.293c-1.206,1.205-1.964,2.786-2.151,4.48L68.664,331.708l-0.063,0.565
		c-0.03,0.271-0.045,0.545-0.045,0.818l-0.041,74.281c-0.001,2.02,0.811,3.951,2.253,5.363l26.622,26.062
		c1.402,1.371,3.285,2.141,5.247,2.141h38.5l0.918,2.1c4.492,10.279,14.617,16.924,25.795,16.922c2.418,0,4.84-0.314,7.199-0.938
		c8.27-2.182,15.251-8.156,18.674-15.984l0.919-2.1h70.679l0.919,2.1c3.424,7.828,10.404,13.805,18.674,15.984
		c2.359,0.621,4.781,0.938,7.198,0.938c11.179,0,21.306-6.643,25.796-16.922l0.918-2.1h38.448c1.959,0,3.84-0.768,5.242-2.137
		l26.672-26.062c1.446-1.412,2.261-3.35,2.258-5.373L391.355,333.087z M357.159,279.814H338.15
		c5.689-4.279,9.369-11.088,9.369-18.756c0-62.521-23.521-99.189-45.756-119.883l35.128-45.104L357.159,279.814z M127.328,56.998
		l15.094-15.093h32.952c-2.132,6.033-3.303,12.52-3.303,19.282c0,22.961,13.37,42.798,32.748,52.155
		c-10.543,3.547-25.268,10.126-40.004,22.043c-23.916,19.34-52.425,56.842-52.425,125.673c0,7.668,3.68,14.477,9.37,18.756h-19.009
		L127.328,56.998z M138.734,412.746h-27.407l-14.133-13.939v-35.729c3.112,1.051,6.439,1.629,9.901,1.629h31.951
		C137.311,380.156,137.302,396.98,138.734,412.746z M124.782,344.012h-17.687c-5.547,0-10.089-4.388-10.336-9.875l4.218-38.238
		h61.275L124.782,344.012z M174.778,279.814h-24.861c5.697-4.277,9.39-11.08,9.39-18.756c0-28.365,5.817-51.623,17.335-69.469
		v63.126l100.749-131.373c-8.322-4.716-16.048-7.897-22.3-10.001c19.379-9.357,32.748-29.194,32.748-52.155
		c0-6.763-1.171-13.249-3.304-19.282h32.953l15.093,15.093l1.972,17.862L174.778,279.814z M267.626,412.746h-75.341
		c-1.961-16.691-1.622-34.92,0.4-48.041h74.541C269.248,377.828,269.587,396.053,267.626,412.746z M200.796,344.012
		c2.308-2.885,5.135-5.904,8.202-8.865c6.434,2.754,13.517,4.283,20.957,4.283c7.441,0,14.523-1.529,20.957-4.283
		c3.067,2.961,5.896,5.98,8.202,8.865H200.796z M281.839,295.73h-31.276v1.252c0,2.762-2.237,5-5,5h-31.166c-2.762,0-5-2.238-5-5
		v-1.252h-27.808l11.683-15.797h16.125v-1.285c0-2.762,2.238-5,5-5h31.166c2.763,0,5,2.238,5,5v1.285h31.276V295.73z
		 M283.269,279.814V191.59c11.518,17.846,17.335,41.104,17.335,69.469c0,7.668,3.681,14.477,9.369,18.756H283.269L283.269,279.814z
		 M362.716,398.807l-14.134,13.938h-27.405c1.432-15.764,1.425-32.588-0.311-48.04h31.947c3.462,0,6.789-0.578,9.901-1.629
		L362.716,398.807L362.716,398.807z M352.814,344.012h-35.578c-1.803-7.177-4.113-13.654-6.982-19.058
		c-5.681-10.69-14.578-20.769-23.261-29.058h71.939l4.218,38.24C362.902,339.624,358.361,344.012,352.814,344.012z"/>
</g>
<g>
</g>
<g>
</g>
<g>
</g>
<g>
</g>
<g>
</g>
<g>
</g>
<g>
</g>
<g>
</g>
<g>
</g>
<g>
</g>
<g>
</g>
<g>
</g>
<g>
</g>
<g>
</g>
<g>
</g>
</svg>
