<?xml version="1.0" encoding="iso-8859-1"?>
<!-- Generator: Adobe Illustrator 16.0.0, SVG Export Plug-In . SVG Version: 6.00 Build 0)  -->
<!DOCTYPE svg PUBLIC "-//W3C//DTD SVG 1.1//EN" "http://www.w3.org/Graphics/SVG/1.1/DTD/svg11.dtd">
<svg version="1.1" id="Capa_1" xmlns="http://www.w3.org/2000/svg" xmlns:xlink="http://www.w3.org/1999/xlink" x="0px" y="0px"
	 width="474.775px" height="474.775px" viewBox="0 0 474.775 474.775" style="enable-background:new 0 0 474.775 474.775;"
	 xml:space="preserve">
<g>
	<path d="M467.273,342.162h-89.288l-14.69-14.691c1.705-5.709,2.297-11.63,1.759-17.54l13.186-3.348
		c4.016-1.019,6.443-5.1,5.425-9.114l-9.431-37.145l66.153-16.857c1.928-0.49,3.582-1.726,4.6-3.435s1.313-3.753,0.824-5.681
		l-19.493-76.791l24.63-6.252c1.929-0.49,3.582-1.725,4.601-3.434c1.017-1.709,1.312-3.753,0.824-5.681l-14.104-55.558
		c-1.02-4.015-5.104-6.442-9.115-5.424L5.655,189.737c-3.148,0.799-5.425,3.535-5.638,6.777c-0.214,3.242,1.685,6.252,4.701,7.457
		l63.834,25.498l17.3,68.148c0.46,1.813,1.58,3.388,3.142,4.417l30.787,20.298c1.236,0.815,2.674,1.238,4.128,1.238
		c0.617,0,1.236-0.076,1.847-0.229l117.475-29.822l9.436,37.208c0.489,1.928,1.726,3.583,3.436,4.6
		c1.709,1.019,3.753,1.313,5.681,0.824l13.189-3.349c7.348,17.013,24.171,28.362,43.162,28.362c1.836,0,3.678-0.108,5.51-0.325
		l30.761,30.761c1.407,1.407,3.314,2.197,5.305,2.197h107.567c4.144,0,7.5-3.358,7.5-7.5v-36.633
		C474.773,345.52,471.416,342.162,467.273,342.162z"/>
</g>
<g>
</g>
<g>
</g>
<g>
</g>
<g>
</g>
<g>
</g>
<g>
</g>
<g>
</g>
<g>
</g>
<g>
</g>
<g>
</g>
<g>
</g>
<g>
</g>
<g>
</g>
<g>
</g>
<g>
</g>
</svg>
