<?xml version="1.0" encoding="iso-8859-1"?>
<!-- Generator: Adobe Illustrator 16.0.0, SVG Export Plug-In . SVG Version: 6.00 Build 0)  -->
<!DOCTYPE svg PUBLIC "-//W3C//DTD SVG 1.1//EN" "http://www.w3.org/Graphics/SVG/1.1/DTD/svg11.dtd">
<svg version="1.1" id="Capa_1" xmlns="http://www.w3.org/2000/svg" xmlns:xlink="http://www.w3.org/1999/xlink" x="0px" y="0px"
	 width="484.208px" height="484.208px" viewBox="0 0 484.208 484.208" style="enable-background:new 0 0 484.208 484.208;"
	 xml:space="preserve">
<g>
	<path d="M483.464,225.602c-0.863-1.791-2.403-3.167-4.281-3.823l-33.182-11.596c-1.281-0.448-2.658-0.54-3.987-0.266l-23.161,4.768
		l-0.194-1.15c-0.317-1.89-1.349-3.586-2.879-4.74l-21.505-16.221c-2.793-2.106-6.672-2.002-9.346,0.25l-11.625,9.783
		l-18.507-10.877c-2.598-1.525-5.855-1.35-8.272,0.446l-11.028,8.192l-18.689-10.983c-2.599-1.527-5.856-1.351-8.272,0.445
		l-5.471,4.064l-2.374-12.297c-0.266-1.381-0.916-2.66-1.875-3.689l-22.975-24.671c-1.56-1.675-3.804-2.541-6.079-2.365
		c-2.28,0.18-4.354,1.392-5.631,3.29l-15.02,22.326c-1.105,1.645-1.519,3.661-1.144,5.607l7.284,37.735l-3.882-0.785
		c-0.488-0.099-0.986-0.148-1.486-0.148h-26.907l-1.472-8.714c-0.318-1.89-1.349-3.586-2.879-4.74l-21.509-16.222
		c-2.794-2.107-6.673-2.002-9.346,0.251l-11.62,9.782l-18.507-10.876c-2.598-1.526-5.854-1.351-8.272,0.445l-11.029,8.193
		l-18.69-10.983c-2.599-1.527-5.854-1.351-8.271,0.445l-5.473,4.064l-2.374-12.297c-0.266-1.381-0.916-2.659-1.874-3.689
		l-22.973-24.669c-1.56-1.675-3.796-2.545-6.08-2.366c-2.281,0.181-4.355,1.392-5.633,3.291l-15.017,22.326
		c-1.106,1.645-1.517,3.661-1.142,5.607l7.749,40.152h-3.34l-34.507-13.81c-1.849-0.74-3.912-0.714-5.74,0.069
		c-1.828,0.783-3.271,2.261-4.01,4.107L0.539,235.32c-1.539,3.846,0.33,8.21,4.176,9.75l40.868,16.355
		c0.887,0.355,1.832,0.537,2.786,0.537h18.506l1.715,8.889c0.414,2.15,1.751,4.015,3.656,5.098l22.623,12.87
		c2.496,1.42,5.58,1.289,7.947-0.331l9.934-6.804l19.314,9.078c2.15,1.013,4.658,0.943,6.752-0.187l12.037-6.495l19.202,9.027
		c2.151,1.011,4.657,0.941,6.752-0.188l5.361-2.893l2.095,12.412c0.244,1.445,0.906,2.789,1.906,3.861l22.973,24.671
		c1.559,1.676,3.791,2.548,6.08,2.366c2.281-0.18,4.354-1.392,5.631-3.291l15.02-22.326c1.073-1.594,1.492-3.538,1.173-5.434
		l-6.805-40.326h16.079l17.757,3.594l1.668,8.646c0.415,2.152,1.751,4.015,3.655,5.099l22.624,12.869
		c2.495,1.42,5.579,1.289,7.946-0.331l9.934-6.804l19.313,9.079c2.151,1.013,4.658,0.944,6.753-0.188l12.038-6.494l19.198,9.025
		c2.153,1.013,4.658,0.943,6.753-0.186l5.363-2.896l2.097,12.414c0.243,1.446,0.906,2.789,1.905,3.862l22.973,24.671
		c1.424,1.529,3.416,2.389,5.487,2.389c0.196,0,0.395-0.008,0.593-0.022c2.28-0.181,4.354-1.393,5.632-3.29l15.019-22.326
		c1.072-1.595,1.491-3.539,1.172-5.434l-8.176-48.464l15.047-3.098l23.9,8.354c3.91,1.364,8.188-0.695,9.556-4.605l9.261-26.495
		C484.444,229.456,484.328,227.394,483.464,225.602z"/>
</g>
<g>
</g>
<g>
</g>
<g>
</g>
<g>
</g>
<g>
</g>
<g>
</g>
<g>
</g>
<g>
</g>
<g>
</g>
<g>
</g>
<g>
</g>
<g>
</g>
<g>
</g>
<g>
</g>
<g>
</g>
</svg>
