<?xml version="1.0" encoding="iso-8859-1"?>
<!-- Generator: Adobe Illustrator 16.0.0, SVG Export Plug-In . SVG Version: 6.00 Build 0)  -->
<!DOCTYPE svg PUBLIC "-//W3C//DTD SVG 1.1//EN" "http://www.w3.org/Graphics/SVG/1.1/DTD/svg11.dtd">
<svg version="1.1" id="Capa_1" xmlns="http://www.w3.org/2000/svg" xmlns:xlink="http://www.w3.org/1999/xlink" x="0px" y="0px"
	 width="433.335px" height="433.335px" viewBox="0 0 433.335 433.335" style="enable-background:new 0 0 433.335 433.335;"
	 xml:space="preserve">
<g>
	<g>
		<path d="M354.736,366.13c-69.701-19.479-183.775-91.894-188.596-94.965l-2.313-1.475V86.334c0-2.761-2.238-5-5-5H34.035
			c-2.762,0-5,2.239-5,5v214.057l-0.203,0.702c-0.191,0.659-18.771,66.55-3.363,124.799l0.984,3.722
			c0.58,2.192,2.564,3.721,4.834,3.721h77.74c2.762,0,5-2.239,5-5v-29.017h39.387l67.455,33.496
			c0.691,0.343,1.453,0.521,2.225,0.521h165.584c1.357,0,2.656-0.552,3.599-1.529c0.942-0.977,1.446-2.295,1.397-3.651l-0.188-5.181
			C392.861,405.614,386.996,375.144,354.736,366.13z"/>
		<path d="M413.955,379.276l-1.379-15.998c-1.563-18.121-10.408-31.928-25.58-39.926
			c-59.789-31.521-149.449-119.968-153.238-123.718l-1.562-1.545l36.131-167.297c0.279-1.296,0.033-2.651-0.686-3.765
			c-0.72-1.115-1.851-1.898-3.146-2.178L149.961,0.115c-2.701-0.586-5.359,1.133-5.943,3.832l-12.166,56.333
			c-0.318,1.478,0.047,3.02,0.996,4.196c0.949,1.176,2.379,1.86,3.891,1.86h44.453v190.086c0,1.731,0.896,3.34,2.369,4.251
			l2.367,1.465c27.193,16.837,120.458,73.039,178.863,89.36c12.445,3.477,22.574,9.871,30.107,19.003l10.219,12.386
			c0.971,1.178,2.396,1.818,3.856,1.818c0.636,0,1.275-0.121,1.892-0.372C412.891,383.506,414.143,381.457,413.955,379.276z"/>
	</g>
</g>
<g>
</g>
<g>
</g>
<g>
</g>
<g>
</g>
<g>
</g>
<g>
</g>
<g>
</g>
<g>
</g>
<g>
</g>
<g>
</g>
<g>
</g>
<g>
</g>
<g>
</g>
<g>
</g>
<g>
</g>
</svg>
