<?xml version="1.0" encoding="iso-8859-1"?>
<!-- Generator: Adobe Illustrator 16.0.0, SVG Export Plug-In . SVG Version: 6.00 Build 0)  -->
<!DOCTYPE svg PUBLIC "-//W3C//DTD SVG 1.1//EN" "http://www.w3.org/Graphics/SVG/1.1/DTD/svg11.dtd">
<svg version="1.1" id="Capa_1" xmlns="http://www.w3.org/2000/svg" xmlns:xlink="http://www.w3.org/1999/xlink" x="0px" y="0px"
	 width="431.972px" height="431.973px" viewBox="0 0 431.972 431.973" style="enable-background:new 0 0 431.972 431.973;"
	 xml:space="preserve">
<g>
	<g>
		<path d="M358.543,157.001l-0.044-0.136c-2.741-8.4-6.886-21.095-6.886-39.443C351.614,52.675,290.777,0,215.996,0
			C141.216,0,80.378,52.674,80.378,117.421c0,18.342-4.14,31.036-6.873,39.416l-0.079,0.241c-0.482,1.475-0.252,3.09,0.623,4.372
			c0.875,1.282,2.295,2.085,3.845,2.173h276.207c1.549-0.088,2.956-0.931,3.831-2.211
			C358.807,160.132,359.025,158.476,358.543,157.001z"/>
		<path d="M353.424,232.445c-2.066-0.494-4.989-0.86-7.119-1.129l-7.718-0.977l2.461-38.215c0.089-1.367-0.389-2.71-1.318-3.716
			c-0.932-1.006-2.232-1.586-3.604-1.604H95.864c-1.37,0.019-2.672,0.599-3.603,1.604c-0.931,1.006-1.407,2.349-1.319,3.716
			l2.462,38.215l-7.713,0.977c-2.134,0.27-5.057,0.637-7.124,1.129c-2.468,0.59-4.104,2.934-3.805,5.453
			c0.133,1.127,0.392,2.408,0.767,3.812l14.185,46.146c0.366,1.098,1.385,1.771,2.417,2.217c3.731,1.613,6.586,5.844,8.04,11.91
			c0.011,0.045,0.022,0.088,0.034,0.133c4.954,18.41,21.277,65.939,37.513,87.248c15.646,20.537,67.318,41.98,77.988,42.602
			c0.097,0.006,0.193,0.008,0.29,0.008c0.097,0,0.194-0.002,0.291-0.008c10.669-0.619,62.342-22.064,77.988-42.602
			c16.236-21.311,32.559-68.838,37.512-87.246c0.013-0.045,0.023-0.09,0.034-0.135c1.454-6.065,4.31-10.295,8.041-11.91
			c1.031-0.446,2.079-1.103,2.416-2.217l14.185-46.146c0.375-1.401,0.634-2.683,0.768-3.812
			C357.529,235.38,355.893,233.035,353.424,232.445z"/>
	</g>
</g>
<g>
</g>
<g>
</g>
<g>
</g>
<g>
</g>
<g>
</g>
<g>
</g>
<g>
</g>
<g>
</g>
<g>
</g>
<g>
</g>
<g>
</g>
<g>
</g>
<g>
</g>
<g>
</g>
<g>
</g>
</svg>
