<?xml version="1.0" encoding="iso-8859-1"?>
<!-- Generator: Adobe Illustrator 16.0.0, SVG Export Plug-In . SVG Version: 6.00 Build 0)  -->
<!DOCTYPE svg PUBLIC "-//W3C//DTD SVG 1.1//EN" "http://www.w3.org/Graphics/SVG/1.1/DTD/svg11.dtd">
<svg version="1.1" id="Capa_1" xmlns="http://www.w3.org/2000/svg" xmlns:xlink="http://www.w3.org/1999/xlink" x="0px" y="0px"
	 width="478.153px" height="478.153px" viewBox="0 0 478.153 478.153" style="enable-background:new 0 0 478.153 478.153;"
	 xml:space="preserve">
<g>
	<g>
		<path d="M200.657,214.755l6.98,48.938c2.58-0.917,10.494-3.666,21.241-6.844c-20.582-30.647-28.81-62.252-32.064-83.862
			c-1.299-8.62-1.933-16.295-2.205-22.673c-11.847,21.049-40.135,63.733-75.261,65.03c-11.692,0.431-20.819,10.26-20.388,21.95
			c0.391,10.582,8.478,19.063,18.679,20.259c1.069,0.125,2.163,0.172,3.271,0.131C148.803,256.653,176.164,241.864,200.657,214.755z
			"/>
		<path d="M269.016,172.019c-26.672-1.73-53.375,10.645-59.83,13.875c2.139,9.429,5.122,19.562,9.268,29.991
			c9.161-4.354,31.913-13.812,56.134-13.503C271.898,192.195,270.105,181.859,269.016,172.019z"/>
		<path d="M153.612,88.89c0.959,0.163,1.966,0.159,2.978-0.038l14.742-2.831c3.545,19.495,17.694,35.763,36.888,41.762
			c-1.032,1.384-2.565,3.619-4.105,5.954c-0.3,7.427-0.308,23.855,3.664,44.449c8.817-4.288,34.184-15.245,60.594-13.855
			c-1.729-21.259-0.229-39.32,2.354-47.05c-3.266-1.619-5.869-2.759-7.633-3.484c7.938-8.197,13.355-18.955,14.787-31.164
			c0.786-6.721,0.289-13.293-1.279-19.485c0.089-0.15,0.174-0.303,0.25-0.464c1.349-2.882-0.078-5.459-1.457-7.951
			c-1.299-2.348-3.077-5.563-4.034-10.543c-4.782-24.885-31.598-40.723-59.775-35.308c-28.179,5.416-47.213,30.065-42.432,54.949
			c0.401,2.088,1.131,5.514,1.131,5.514l-16.87,3.243c-4.49,0.879-7.42,5.229-6.542,9.722
			C147.55,85.788,150.313,88.33,153.612,88.89z"/>
		<path d="M291.937,244.854c-6.716-10.1-11.749-21.73-15.443-33.782c-23.606-0.852-46.784,8.845-55.472,12.956
			c4.544,10.378,10.27,20.962,17.488,31.359C256.262,250.51,272.7,245.482,291.937,244.854z"/>
		<path d="M377.693,239.851c-22.324-55.945-56.148-88.782-81.562-106.841V0h-12.31v124.938c-1.354-0.815-2.674-1.593-3.932-2.309
			c-1.443,17.832-8.478,70.455,23.116,120.344c0.146,0.009,6.39,0.02,6.532,0.028l-6.683-46.846
			c14.551,16.852,26.438,36.729,35.482,59.397c2.985,7.48,9.754,12.32,17.229,13.195c3.382,0.396,6.912-0.021,10.298-1.371
			C376.736,263.042,382.029,250.719,377.693,239.851z"/>
		<path d="M247.467,315.143c-8.699-22.037-39.017-29.301-44.022-30.357c-29.117,21.309-32.072,28.247-33.974,32.742
			c-5.548,13.113-10.967,45.938-3.157,82.623c2.511,11.794,12.925,19.875,24.518,19.874c1.73,0,3.489-0.182,5.249-0.556
			c13.555-2.887,22.204-16.213,19.319-29.768c-5.004-23.506-2.113-42.973-0.398-50.156
			C220.491,334.518,233.996,324.503,247.467,315.143z"/>
		<path d="M311.368,292.506c0.214-1.547,0.351-3.113,0.421-4.693c-7.476,0.689-37.867,4.797-47.848,26.39
			c6.07,39.423,16.457,109.121,19.059,140.903c1.074,13.115,12.051,23.048,24.981,23.048c0.687,0,1.379-0.029,2.074-0.085
			c13.813-1.131,24.094-13.245,22.963-27.059C329.901,412.925,316.799,327.227,311.368,292.506z"/>
		<path d="M312.725,276.319c-0.085-1.236-0.213-2.479-0.392-3.726l-2.567-17.957l-0.943-0.074c-2.118-0.168-4.397-0.252-6.776-0.252
			c-36.479,0-90.8,19.496-91.344,19.693l-0.836,0.303l0.229,1.606c9.53,2.338,35.779,10.582,45.051,32.035
			c1.877-1.283,3.734-2.54,5.55-3.756C273.02,280.812,305.286,276.912,312.725,276.319z"/>
	</g>
</g>
<g>
</g>
<g>
</g>
<g>
</g>
<g>
</g>
<g>
</g>
<g>
</g>
<g>
</g>
<g>
</g>
<g>
</g>
<g>
</g>
<g>
</g>
<g>
</g>
<g>
</g>
<g>
</g>
<g>
</g>
</svg>
